G04*
G04 #@! TF.GenerationSoftware,Altium Limited,Altium Designer,22.10.1 (41)*
G04*
G04 Layer_Color=16711935*
%FSLAX25Y25*%
%MOIN*%
G70*
G04*
G04 #@! TF.SameCoordinates,29EE3482-A75D-48CA-8BFF-185FBC0ED275*
G04*
G04*
G04 #@! TF.FilePolarity,Positive*
G04*
G01*
G75*
%ADD25C,0.00394*%
D25*
X219606Y182736D02*
X219586Y183733D01*
X219525Y184729D01*
X219425Y185721D01*
X219284Y186709D01*
X219103Y187689D01*
X218882Y188662D01*
X218622Y189625D01*
X218324Y190577D01*
X217987Y191516D01*
X217612Y192440D01*
X217200Y193348D01*
X216752Y194239D01*
X216268Y195111D01*
X215749Y195963D01*
X215196Y196793D01*
X214610Y197600D01*
X213991Y198382D01*
X213341Y199139D01*
X212662Y199869D01*
X211953Y200571D01*
X211216Y201243D01*
X210453Y201885D01*
X209664Y202496D01*
X208851Y203074D01*
X208016Y203618D01*
X207159Y204129D01*
X206282Y204604D01*
X205386Y205043D01*
X204474Y205446D01*
X203546Y205811D01*
X202604Y206138D01*
X201649Y206427D01*
X200684Y206677D01*
X199709Y206888D01*
X198726Y207059D01*
X197737Y207190D01*
X196744Y207281D01*
X195748Y207331D01*
X194751Y207341D01*
X193754Y207311D01*
X192759Y207240D01*
X191768Y207129D01*
X190782Y206978D01*
X189803Y206787D01*
X188832Y206557D01*
X187872Y206288D01*
X186924Y205979D01*
X185988Y205633D01*
X185068Y205249D01*
X184164Y204828D01*
X183277Y204371D01*
X182410Y203878D01*
X181564Y203350D01*
X180739Y202789D01*
X179938Y202194D01*
X179162Y201568D01*
X178412Y200911D01*
X177689Y200223D01*
X176995Y199507D01*
X176330Y198764D01*
X175696Y197994D01*
X175093Y197199D01*
X174523Y196381D01*
X173987Y195540D01*
X173486Y194678D01*
X173019Y193796D01*
X172589Y192896D01*
X172196Y191980D01*
X171840Y191048D01*
X171522Y190102D01*
X171243Y189145D01*
X171003Y188177D01*
X170802Y187200D01*
X170641Y186216D01*
X170520Y185226D01*
X170439Y184231D01*
X170399Y183235D01*
Y182238D01*
X170439Y181241D01*
X170520Y180247D01*
X170641Y179257D01*
X170802Y178272D01*
X171003Y177295D01*
X171243Y176328D01*
X171522Y175370D01*
X171840Y174425D01*
X172196Y173493D01*
X172589Y172576D01*
X173019Y171676D01*
X173486Y170795D01*
X173987Y169933D01*
X174523Y169092D01*
X175093Y168273D01*
X175696Y167478D01*
X176330Y166708D01*
X176995Y165965D01*
X177689Y165249D01*
X178412Y164562D01*
X179162Y163905D01*
X179938Y163278D01*
X180739Y162684D01*
X181564Y162122D01*
X182410Y161595D01*
X183277Y161102D01*
X184164Y160645D01*
X185068Y160224D01*
X185988Y159840D01*
X186924Y159493D01*
X187872Y159185D01*
X188832Y158915D01*
X189803Y158685D01*
X190782Y158494D01*
X191768Y158343D01*
X192759Y158232D01*
X193754Y158162D01*
X194751Y158131D01*
X195748Y158141D01*
X196744Y158192D01*
X197737Y158283D01*
X198726Y158414D01*
X199709Y158585D01*
X200684Y158795D01*
X201649Y159045D01*
X202604Y159334D01*
X203546Y159662D01*
X204474Y160027D01*
X205386Y160430D01*
X206282Y160869D01*
X207159Y161344D01*
X208016Y161854D01*
X208851Y162399D01*
X209664Y162977D01*
X210453Y163587D01*
X211216Y164230D01*
X211953Y164902D01*
X212662Y165603D01*
X213341Y166333D01*
X213991Y167090D01*
X214610Y167873D01*
X215196Y168679D01*
X215749Y169509D01*
X216268Y170361D01*
X216752Y171233D01*
X217200Y172124D01*
X217612Y173033D01*
X217987Y173957D01*
X218324Y174896D01*
X218622Y175847D01*
X218882Y176810D01*
X219103Y177783D01*
X219284Y178764D01*
X219425Y179751D01*
X219525Y180744D01*
X219586Y181739D01*
X219606Y182736D01*
X257401Y192500D02*
X257361Y193498D01*
X257241Y194489D01*
X257041Y195468D01*
X256763Y196427D01*
X256409Y197361D01*
X255981Y198263D01*
X255482Y199128D01*
X254914Y199950D01*
X254283Y200724D01*
X253591Y201444D01*
X252843Y202106D01*
X252045Y202706D01*
X251201Y203240D01*
X250316Y203704D01*
X249398Y204096D01*
X248450Y204412D01*
X247481Y204651D01*
X246495Y204811D01*
X245499Y204891D01*
X244501D01*
X243505Y204811D01*
X242519Y204651D01*
X241550Y204412D01*
X240602Y204096D01*
X239684Y203704D01*
X238799Y203240D01*
X237955Y202706D01*
X237157Y202106D01*
X236409Y201444D01*
X235717Y200724D01*
X235086Y199950D01*
X234518Y199128D01*
X234019Y198263D01*
X233591Y197361D01*
X233237Y196427D01*
X232959Y195468D01*
X232759Y194489D01*
X232639Y193498D01*
X232598Y192500D01*
X232639Y191502D01*
X232759Y190511D01*
X232959Y189532D01*
X233237Y188573D01*
X233591Y187639D01*
X234019Y186737D01*
X234518Y185872D01*
X235086Y185050D01*
X235717Y184276D01*
X236409Y183556D01*
X237157Y182894D01*
X237955Y182294D01*
X238799Y181760D01*
X239684Y181296D01*
X240602Y180904D01*
X241550Y180588D01*
X242519Y180349D01*
X243505Y180189D01*
X244501Y180108D01*
X245499D01*
X246495Y180189D01*
X247481Y180349D01*
X248450Y180588D01*
X249398Y180904D01*
X250317Y181296D01*
X251201Y181760D01*
X252045Y182294D01*
X252843Y182894D01*
X253591Y183556D01*
X254283Y184276D01*
X254914Y185050D01*
X255482Y185872D01*
X255981Y186737D01*
X256409Y187639D01*
X256763Y188573D01*
X257041Y189532D01*
X257241Y190511D01*
X257361Y191502D01*
X257401Y192500D01*
X254842Y255000D02*
X254792Y255996D01*
X254641Y256981D01*
X254391Y257946D01*
X254045Y258881D01*
X253606Y259777D01*
X253078Y260623D01*
X252468Y261411D01*
X251781Y262134D01*
X251025Y262783D01*
X250206Y263353D01*
X249335Y263837D01*
X248418Y264230D01*
X247467Y264528D01*
X246490Y264729D01*
X245498Y264830D01*
X244501D01*
X243510Y264729D01*
X242533Y264528D01*
X241582Y264230D01*
X240665Y263837D01*
X239794Y263353D01*
X238975Y262783D01*
X238219Y262134D01*
X237532Y261411D01*
X236922Y260623D01*
X236394Y259777D01*
X235955Y258881D01*
X235609Y257946D01*
X235359Y256981D01*
X235208Y255996D01*
X235157Y255000D01*
X235208Y254004D01*
X235359Y253019D01*
X235609Y252053D01*
X235955Y251118D01*
X236394Y250223D01*
X236922Y249377D01*
X237532Y248589D01*
X238219Y247866D01*
X238975Y247217D01*
X239794Y246647D01*
X240665Y246163D01*
X241582Y245770D01*
X242533Y245472D01*
X243510Y245271D01*
X244501Y245170D01*
X245498D01*
X246491Y245271D01*
X247467Y245472D01*
X248418Y245770D01*
X249335Y246163D01*
X250206Y246647D01*
X251025Y247217D01*
X251781Y247866D01*
X252468Y248589D01*
X253078Y249377D01*
X253606Y250223D01*
X254045Y251119D01*
X254391Y252053D01*
X254641Y253019D01*
X254792Y254004D01*
X254842Y255000D01*
X157933Y252500D02*
X157919Y253498D01*
X157877Y254496D01*
X157807Y255491D01*
X157708Y256485D01*
X157582Y257475D01*
X157428Y258462D01*
X157246Y259443D01*
X157037Y260419D01*
X156800Y261389D01*
X156536Y262352D01*
X156245Y263307D01*
X155927Y264253D01*
X155582Y265190D01*
X155212Y266117D01*
X154815Y267033D01*
X154393Y267938D01*
X153946Y268830D01*
X153473Y269710D01*
X152976Y270575D01*
X152454Y271427D01*
X151909Y272263D01*
X151341Y273084D01*
X150750Y273888D01*
X150136Y274676D01*
X149500Y275445D01*
X148843Y276197D01*
X148165Y276930D01*
X147467Y277643D01*
X146748Y278336D01*
X146011Y279009D01*
X145255Y279661D01*
X144480Y280291D01*
X143689Y280900D01*
X142880Y281485D01*
X142056Y282048D01*
X141216Y282587D01*
X140360Y283102D01*
X139491Y283593D01*
X138609Y284060D01*
X137713Y284501D01*
X136805Y284917D01*
X135887Y285307D01*
X134957Y285671D01*
X134018Y286009D01*
X133069Y286320D01*
X132112Y286604D01*
X131147Y286862D01*
X130176Y287092D01*
X129198Y287294D01*
X128215Y287469D01*
X127228Y287616D01*
X126237Y287735D01*
X125243Y287827D01*
X124246Y287890D01*
X123249Y287925D01*
X122250Y287932D01*
X121252Y287911D01*
X120255Y287862D01*
X119260Y287785D01*
X118267Y287679D01*
X117278Y287546D01*
X116293Y287385D01*
X115312Y287196D01*
X114338Y286980D01*
X113370Y286736D01*
X112409Y286466D01*
X111456Y286168D01*
X110512Y285843D01*
X109577Y285492D01*
X108653Y285115D01*
X107739Y284712D01*
X106838Y284283D01*
X105948Y283830D01*
X105072Y283351D01*
X104210Y282848D01*
X103363Y282320D01*
X102530Y281769D01*
X101713Y281195D01*
X100913Y280598D01*
X100130Y279979D01*
X99365Y279338D01*
X98618Y278675D01*
X97890Y277992D01*
X97182Y277289D01*
X96494Y276566D01*
X95826Y275823D01*
X95179Y275063D01*
X94555Y274284D01*
X93952Y273488D01*
X93372Y272676D01*
X92815Y271847D01*
X92282Y271003D01*
X91773Y270144D01*
X91288Y269272D01*
X90828Y268386D01*
X90393Y267487D01*
X89983Y266577D01*
X89600Y265655D01*
X89242Y264723D01*
X88911Y263781D01*
X88606Y262830D01*
X88329Y261872D01*
X88078Y260905D01*
X87855Y259932D01*
X87660Y258953D01*
X87492Y257969D01*
X87351Y256981D01*
X87239Y255989D01*
X87155Y254994D01*
X87099Y253997D01*
X87071Y252999D01*
Y252001D01*
X87099Y251003D01*
X87155Y250006D01*
X87239Y249011D01*
X87351Y248020D01*
X87492Y247031D01*
X87660Y246047D01*
X87855Y245068D01*
X88078Y244095D01*
X88329Y243128D01*
X88606Y242170D01*
X88911Y241219D01*
X89242Y240277D01*
X89600Y239345D01*
X89983Y238423D01*
X90393Y237513D01*
X90828Y236614D01*
X91288Y235728D01*
X91773Y234856D01*
X92282Y233997D01*
X92815Y233153D01*
X93372Y232324D01*
X93952Y231512D01*
X94555Y230716D01*
X95179Y229937D01*
X95826Y229176D01*
X96493Y228434D01*
X97182Y227711D01*
X97890Y227008D01*
X98618Y226325D01*
X99365Y225662D01*
X100130Y225021D01*
X100913Y224402D01*
X101713Y223805D01*
X102530Y223231D01*
X103363Y222680D01*
X104210Y222152D01*
X105072Y221649D01*
X105948Y221170D01*
X106838Y220717D01*
X107739Y220288D01*
X108653Y219885D01*
X109577Y219508D01*
X110512Y219157D01*
X111456Y218832D01*
X112408Y218534D01*
X113369Y218264D01*
X114338Y218020D01*
X115312Y217804D01*
X116293Y217615D01*
X117278Y217454D01*
X118267Y217321D01*
X119260Y217215D01*
X120255Y217138D01*
X121252Y217089D01*
X122250Y217068D01*
X123249Y217075D01*
X124246Y217110D01*
X125243Y217173D01*
X126237Y217265D01*
X127228Y217384D01*
X128215Y217531D01*
X129198Y217706D01*
X130176Y217908D01*
X131147Y218138D01*
X132112Y218396D01*
X133069Y218680D01*
X134018Y218991D01*
X134957Y219329D01*
X135887Y219693D01*
X136805Y220083D01*
X137713Y220499D01*
X138608Y220940D01*
X139491Y221407D01*
X140360Y221898D01*
X141215Y222413D01*
X142056Y222952D01*
X142880Y223515D01*
X143689Y224100D01*
X144480Y224709D01*
X145255Y225339D01*
X146011Y225991D01*
X146748Y226664D01*
X147467Y227357D01*
X148165Y228070D01*
X148843Y228803D01*
X149500Y229555D01*
X150136Y230324D01*
X150750Y231112D01*
X151341Y231916D01*
X151909Y232737D01*
X152454Y233573D01*
X152976Y234424D01*
X153473Y235290D01*
X153945Y236170D01*
X154393Y237062D01*
X154815Y237967D01*
X155212Y238883D01*
X155582Y239810D01*
X155927Y240747D01*
X156245Y241693D01*
X156536Y242648D01*
X156800Y243611D01*
X157037Y244581D01*
X157246Y245557D01*
X157428Y246538D01*
X157582Y247525D01*
X157708Y248515D01*
X157807Y249509D01*
X157877Y250504D01*
X157919Y251502D01*
X157933Y252500D01*
X219606Y122500D02*
X219586Y123497D01*
X219525Y124493D01*
X219425Y125485D01*
X219284Y126472D01*
X219103Y127453D01*
X218882Y128426D01*
X218622Y129389D01*
X218324Y130341D01*
X217987Y131279D01*
X217612Y132204D01*
X217200Y133112D01*
X216752Y134003D01*
X216268Y134875D01*
X215749Y135727D01*
X215196Y136557D01*
X214610Y137364D01*
X213991Y138146D01*
X213341Y138903D01*
X212662Y139633D01*
X211953Y140334D01*
X211216Y141007D01*
X210453Y141649D01*
X209664Y142259D01*
X208851Y142837D01*
X208016Y143382D01*
X207159Y143892D01*
X206282Y144367D01*
X205386Y144807D01*
X204474Y145209D01*
X203546Y145575D01*
X202604Y145902D01*
X201649Y146191D01*
X200684Y146441D01*
X199709Y146651D01*
X198726Y146823D01*
X197737Y146953D01*
X196744Y147044D01*
X195748Y147095D01*
X194751Y147105D01*
X193754Y147075D01*
X192759Y147004D01*
X191768Y146893D01*
X190782Y146742D01*
X189803Y146551D01*
X188832Y146321D01*
X187872Y146051D01*
X186924Y145743D01*
X185988Y145397D01*
X185068Y145013D01*
X184164Y144592D01*
X183277Y144134D01*
X182410Y143641D01*
X181564Y143114D01*
X180739Y142552D01*
X179938Y141958D01*
X179162Y141332D01*
X178412Y140674D01*
X177689Y139987D01*
X176995Y139271D01*
X176330Y138528D01*
X175696Y137758D01*
X175093Y136963D01*
X174523Y136145D01*
X173987Y135303D01*
X173486Y134441D01*
X173019Y133560D01*
X172589Y132660D01*
X172196Y131743D01*
X171840Y130812D01*
X171522Y129866D01*
X171243Y128909D01*
X171003Y127941D01*
X170802Y126964D01*
X170641Y125979D01*
X170520Y124989D01*
X170439Y123995D01*
X170399Y122999D01*
Y122001D01*
X170439Y121005D01*
X170520Y120011D01*
X170641Y119021D01*
X170802Y118036D01*
X171003Y117059D01*
X171243Y116091D01*
X171522Y115134D01*
X171840Y114188D01*
X172196Y113257D01*
X172589Y112340D01*
X173019Y111440D01*
X173486Y110558D01*
X173987Y109696D01*
X174523Y108855D01*
X175093Y108037D01*
X175696Y107242D01*
X176330Y106472D01*
X176995Y105729D01*
X177689Y105013D01*
X178412Y104326D01*
X179162Y103668D01*
X179938Y103042D01*
X180739Y102447D01*
X181564Y101886D01*
X182410Y101358D01*
X183277Y100866D01*
X184164Y100408D01*
X185068Y99987D01*
X185988Y99603D01*
X186924Y99257D01*
X187872Y98949D01*
X188832Y98679D01*
X189803Y98449D01*
X190782Y98258D01*
X191768Y98107D01*
X192759Y97996D01*
X193754Y97925D01*
X194751Y97895D01*
X195748Y97905D01*
X196744Y97956D01*
X197737Y98046D01*
X198726Y98177D01*
X199709Y98348D01*
X200684Y98559D01*
X201649Y98809D01*
X202604Y99098D01*
X203546Y99426D01*
X204474Y99791D01*
X205386Y100193D01*
X206282Y100633D01*
X207159Y101108D01*
X208016Y101618D01*
X208851Y102163D01*
X209664Y102741D01*
X210453Y103351D01*
X211216Y103993D01*
X211953Y104666D01*
X212662Y105367D01*
X213341Y106097D01*
X213991Y106854D01*
X214610Y107636D01*
X215196Y108443D01*
X215749Y109273D01*
X216268Y110125D01*
X216752Y110997D01*
X217200Y111888D01*
X217612Y112796D01*
X217987Y113721D01*
X218324Y114659D01*
X218622Y115611D01*
X218882Y116574D01*
X219103Y117547D01*
X219284Y118528D01*
X219425Y119515D01*
X219525Y120507D01*
X219586Y121503D01*
X219606Y122500D01*
X157933Y52500D02*
X157919Y53498D01*
X157877Y54496D01*
X157807Y55492D01*
X157708Y56485D01*
X157582Y57475D01*
X157428Y58462D01*
X157246Y59443D01*
X157037Y60419D01*
X156800Y61389D01*
X156536Y62352D01*
X156245Y63307D01*
X155927Y64253D01*
X155582Y65190D01*
X155212Y66117D01*
X154815Y67033D01*
X154393Y67938D01*
X153946Y68830D01*
X153473Y69710D01*
X152976Y70575D01*
X152454Y71427D01*
X151909Y72263D01*
X151341Y73084D01*
X150750Y73888D01*
X150136Y74676D01*
X149500Y75445D01*
X148843Y76197D01*
X148165Y76930D01*
X147467Y77643D01*
X146748Y78336D01*
X146011Y79009D01*
X145255Y79661D01*
X144480Y80291D01*
X143689Y80900D01*
X142880Y81485D01*
X142056Y82048D01*
X141216Y82587D01*
X140360Y83102D01*
X139491Y83593D01*
X138609Y84060D01*
X137713Y84501D01*
X136805Y84917D01*
X135887Y85307D01*
X134957Y85671D01*
X134018Y86009D01*
X133069Y86320D01*
X132112Y86604D01*
X131147Y86862D01*
X130176Y87092D01*
X129198Y87294D01*
X128215Y87469D01*
X127228Y87616D01*
X126237Y87735D01*
X125243Y87827D01*
X124246Y87890D01*
X123249Y87925D01*
X122250Y87932D01*
X121252Y87911D01*
X120255Y87862D01*
X119260Y87785D01*
X118267Y87679D01*
X117278Y87546D01*
X116293Y87385D01*
X115312Y87196D01*
X114338Y86980D01*
X113370Y86736D01*
X112409Y86466D01*
X111456Y86168D01*
X110512Y85843D01*
X109577Y85492D01*
X108653Y85115D01*
X107739Y84712D01*
X106838Y84284D01*
X105948Y83830D01*
X105072Y83351D01*
X104210Y82848D01*
X103363Y82320D01*
X102530Y81769D01*
X101713Y81195D01*
X100913Y80598D01*
X100130Y79979D01*
X99365Y79338D01*
X98618Y78675D01*
X97890Y77992D01*
X97182Y77289D01*
X96494Y76566D01*
X95826Y75823D01*
X95179Y75063D01*
X94555Y74284D01*
X93952Y73488D01*
X93372Y72676D01*
X92815Y71847D01*
X92282Y71003D01*
X91773Y70144D01*
X91288Y69272D01*
X90828Y68386D01*
X90393Y67487D01*
X89983Y66577D01*
X89600Y65655D01*
X89242Y64723D01*
X88911Y63781D01*
X88606Y62830D01*
X88329Y61871D01*
X88078Y60905D01*
X87855Y59932D01*
X87660Y58953D01*
X87492Y57969D01*
X87351Y56981D01*
X87239Y55989D01*
X87155Y54994D01*
X87099Y53997D01*
X87071Y52999D01*
Y52001D01*
X87099Y51003D01*
X87155Y50006D01*
X87239Y49011D01*
X87351Y48019D01*
X87492Y47031D01*
X87660Y46047D01*
X87855Y45068D01*
X88078Y44095D01*
X88329Y43128D01*
X88606Y42170D01*
X88911Y41219D01*
X89242Y40277D01*
X89600Y39345D01*
X89983Y38423D01*
X90393Y37513D01*
X90828Y36614D01*
X91288Y35728D01*
X91773Y34856D01*
X92282Y33997D01*
X92815Y33153D01*
X93372Y32324D01*
X93952Y31512D01*
X94555Y30716D01*
X95179Y29937D01*
X95826Y29177D01*
X96493Y28434D01*
X97182Y27711D01*
X97890Y27008D01*
X98618Y26325D01*
X99365Y25662D01*
X100130Y25021D01*
X100913Y24402D01*
X101713Y23805D01*
X102530Y23231D01*
X103363Y22680D01*
X104210Y22152D01*
X105072Y21649D01*
X105948Y21170D01*
X106838Y20717D01*
X107739Y20288D01*
X108653Y19885D01*
X109577Y19508D01*
X110512Y19157D01*
X111456Y18832D01*
X112408Y18534D01*
X113369Y18264D01*
X114338Y18020D01*
X115312Y17804D01*
X116293Y17615D01*
X117278Y17454D01*
X118267Y17321D01*
X119260Y17215D01*
X120255Y17138D01*
X121252Y17089D01*
X122250Y17068D01*
X123249Y17075D01*
X124246Y17110D01*
X125243Y17173D01*
X126237Y17265D01*
X127228Y17384D01*
X128215Y17531D01*
X129198Y17706D01*
X130176Y17908D01*
X131147Y18138D01*
X132112Y18396D01*
X133069Y18680D01*
X134018Y18991D01*
X134957Y19329D01*
X135887Y19693D01*
X136805Y20083D01*
X137713Y20499D01*
X138608Y20940D01*
X139491Y21407D01*
X140360Y21898D01*
X141215Y22413D01*
X142056Y22952D01*
X142880Y23515D01*
X143689Y24101D01*
X144480Y24709D01*
X145255Y25339D01*
X146011Y25991D01*
X146748Y26664D01*
X147467Y27357D01*
X148165Y28070D01*
X148843Y28803D01*
X149500Y29555D01*
X150136Y30324D01*
X150750Y31112D01*
X151341Y31916D01*
X151909Y32737D01*
X152454Y33573D01*
X152976Y34424D01*
X153473Y35290D01*
X153945Y36170D01*
X154393Y37062D01*
X154815Y37967D01*
X155212Y38883D01*
X155582Y39810D01*
X155927Y40747D01*
X156245Y41693D01*
X156536Y42648D01*
X156800Y43611D01*
X157037Y44581D01*
X157246Y45557D01*
X157428Y46538D01*
X157582Y47525D01*
X157708Y48515D01*
X157807Y49509D01*
X157877Y50504D01*
X157919Y51502D01*
X157933Y52500D01*
X257401Y112500D02*
X257361Y113498D01*
X257241Y114489D01*
X257041Y115468D01*
X256763Y116427D01*
X256409Y117361D01*
X255981Y118263D01*
X255482Y119128D01*
X254914Y119950D01*
X254283Y120724D01*
X253591Y121444D01*
X252843Y122106D01*
X252045Y122706D01*
X251201Y123240D01*
X250316Y123704D01*
X249398Y124096D01*
X248450Y124412D01*
X247481Y124651D01*
X246495Y124811D01*
X245499Y124891D01*
X244501D01*
X243505Y124811D01*
X242519Y124651D01*
X241550Y124412D01*
X240602Y124096D01*
X239684Y123704D01*
X238799Y123240D01*
X237955Y122706D01*
X237157Y122106D01*
X236409Y121444D01*
X235717Y120724D01*
X235086Y119950D01*
X234518Y119128D01*
X234019Y118263D01*
X233591Y117361D01*
X233237Y116427D01*
X232959Y115468D01*
X232759Y114489D01*
X232639Y113498D01*
X232598Y112500D01*
X232639Y111502D01*
X232759Y110511D01*
X232959Y109532D01*
X233237Y108573D01*
X233591Y107639D01*
X234019Y106737D01*
X234518Y105872D01*
X235086Y105050D01*
X235717Y104276D01*
X236409Y103556D01*
X237157Y102894D01*
X237955Y102294D01*
X238799Y101760D01*
X239684Y101296D01*
X240602Y100904D01*
X241550Y100588D01*
X242519Y100349D01*
X243505Y100189D01*
X244501Y100109D01*
X245499D01*
X246495Y100189D01*
X247481Y100349D01*
X248450Y100588D01*
X249398Y100904D01*
X250317Y101296D01*
X251201Y101760D01*
X252045Y102294D01*
X252843Y102894D01*
X253591Y103556D01*
X254283Y104276D01*
X254914Y105050D01*
X255482Y105872D01*
X255981Y106737D01*
X256409Y107639D01*
X256763Y108573D01*
X257041Y109532D01*
X257241Y110511D01*
X257361Y111502D01*
X257401Y112500D01*
X254842Y50000D02*
X254792Y50996D01*
X254641Y51981D01*
X254391Y52947D01*
X254045Y53881D01*
X253606Y54777D01*
X253078Y55623D01*
X252468Y56411D01*
X251781Y57134D01*
X251025Y57783D01*
X250206Y58353D01*
X249335Y58837D01*
X248418Y59230D01*
X247467Y59528D01*
X246490Y59729D01*
X245498Y59830D01*
X244501D01*
X243510Y59729D01*
X242533Y59528D01*
X241582Y59230D01*
X240665Y58837D01*
X239794Y58353D01*
X238975Y57783D01*
X238219Y57134D01*
X237532Y56411D01*
X236922Y55623D01*
X236394Y54777D01*
X235955Y53881D01*
X235609Y52947D01*
X235359Y51981D01*
X235208Y50996D01*
X235157Y50000D01*
X235208Y49004D01*
X235359Y48019D01*
X235609Y47054D01*
X235955Y46119D01*
X236394Y45223D01*
X236922Y44377D01*
X237532Y43589D01*
X238219Y42866D01*
X238975Y42217D01*
X239794Y41647D01*
X240665Y41163D01*
X241582Y40770D01*
X242533Y40472D01*
X243510Y40271D01*
X244501Y40170D01*
X245498D01*
X246491Y40271D01*
X247467Y40472D01*
X248418Y40770D01*
X249335Y41163D01*
X250206Y41647D01*
X251025Y42217D01*
X251781Y42866D01*
X252468Y43589D01*
X253078Y44377D01*
X253606Y45223D01*
X254045Y46119D01*
X254391Y47054D01*
X254641Y48019D01*
X254792Y49004D01*
X254842Y50000D01*
X91909Y162461D02*
Y203012D01*
X86988D02*
X106083D01*
X86988Y162461D02*
X106083D01*
X86988D02*
Y203012D01*
X106083Y162461D02*
Y203012D01*
X13858Y264862D02*
X46141D01*
X13858Y222499D02*
Y264862D01*
Y222499D02*
X46141D01*
Y264862D01*
X233937Y291102D02*
X276063D01*
Y277717D02*
Y296220D01*
X233937Y277717D02*
Y296220D01*
Y277717D02*
X276063D01*
X233937Y296220D02*
X276063D01*
X217301Y172337D02*
Y193135D01*
X233760Y187259D02*
Y197741D01*
X253920Y250840D02*
Y259160D01*
X298859Y157638D02*
X331142D01*
Y200001D01*
X298859D02*
X331142D01*
X298859Y157638D02*
Y200001D01*
X107525Y220387D02*
X137475D01*
X123917Y162461D02*
Y203012D01*
X143012Y162461D02*
Y203012D01*
X123917D02*
X143012D01*
X123917Y162461D02*
X143012D01*
X138091D02*
Y203012D01*
X256240Y107259D02*
Y117741D01*
X234528Y29390D02*
X275472D01*
Y11280D02*
Y29390D01*
X234528Y11280D02*
X275472D01*
X234528D02*
Y29390D01*
Y16398D02*
X275472D01*
X13858Y82362D02*
X46141D01*
X13858Y39999D02*
Y82362D01*
Y39999D02*
X46141D01*
Y82362D01*
X128819Y102224D02*
Y142776D01*
X123898D02*
X142992D01*
X123898Y102224D02*
X142992D01*
X123898D02*
Y142776D01*
X142992Y102224D02*
Y142776D01*
X100000Y102224D02*
Y142776D01*
X85827Y102224D02*
X104921D01*
X85827Y142776D02*
X104921D01*
Y102224D02*
Y142776D01*
X85827Y102224D02*
Y142776D01*
X107525Y20387D02*
X137475D01*
X172699Y112101D02*
Y132899D01*
X298859Y102638D02*
Y145001D01*
X331142D01*
Y102638D02*
Y145001D01*
X298859Y102638D02*
X331142D01*
X236080Y45840D02*
Y54160D01*
M02*
