G04*
G04 #@! TF.GenerationSoftware,Altium Limited,Altium Designer,22.10.1 (41)*
G04*
G04 Layer_Color=8388736*
%FSLAX25Y25*%
%MOIN*%
G70*
G04*
G04 #@! TF.SameCoordinates,29EE3482-A75D-48CA-8BFF-185FBC0ED275*
G04*
G04*
G04 #@! TF.FilePolarity,Negative*
G04*
G01*
G75*
%ADD13R,0.07493X0.08674*%
%ADD14O,0.07493X0.08674*%
%ADD15O,0.08674X0.07493*%
%ADD16O,0.07874X0.06693*%
%ADD17R,0.07874X0.06693*%
%ADD18C,0.12611*%
%ADD19R,0.08674X0.07493*%
D13*
X97500Y172736D02*
D03*
X245000Y285000D02*
D03*
X132500Y192736D02*
D03*
X94409Y132500D02*
D03*
X134409Y112500D02*
D03*
X265000Y22500D02*
D03*
D14*
X97500Y182736D02*
D03*
Y192736D02*
D03*
X255000Y285000D02*
D03*
X265000D02*
D03*
X270000Y217500D02*
D03*
X240000D02*
D03*
X204842Y182736D02*
D03*
X185158Y182736D02*
D03*
X249921Y192500D02*
D03*
X240079D02*
D03*
X240000Y167500D02*
D03*
X270000D02*
D03*
X248937Y255000D02*
D03*
X241063D02*
D03*
X240000Y235000D02*
D03*
X270000D02*
D03*
X132500Y172736D02*
D03*
Y182736D02*
D03*
X240000Y87500D02*
D03*
X240079Y112500D02*
D03*
X270000Y137500D02*
D03*
X185158Y122500D02*
D03*
X204843D02*
D03*
X270000Y87500D02*
D03*
X94409Y122500D02*
D03*
Y112500D02*
D03*
X134409Y122500D02*
D03*
Y132500D02*
D03*
X255000Y22500D02*
D03*
X245000D02*
D03*
X249921Y112500D02*
D03*
X240000Y137500D02*
D03*
X248937Y50000D02*
D03*
X241063D02*
D03*
X270000Y70000D02*
D03*
X240000D02*
D03*
D15*
X72500Y167500D02*
D03*
Y197500D02*
D03*
X30000Y252500D02*
D03*
Y232500D02*
D03*
X315000Y245000D02*
D03*
Y235000D02*
D03*
X220000Y233720D02*
D03*
Y271280D02*
D03*
X315000Y170000D02*
D03*
Y190000D02*
D03*
X122500Y237736D02*
D03*
Y267264D02*
D03*
X202500Y271280D02*
D03*
Y233720D02*
D03*
X157500Y167736D02*
D03*
Y197736D02*
D03*
X180000Y267500D02*
D03*
Y237500D02*
D03*
X315000Y70000D02*
D03*
X72500Y137500D02*
D03*
Y107500D02*
D03*
X315000Y135000D02*
D03*
Y115000D02*
D03*
X122500Y67264D02*
D03*
Y37736D02*
D03*
X180000Y37500D02*
D03*
Y67500D02*
D03*
X156909Y107500D02*
D03*
Y137500D02*
D03*
X30000Y70000D02*
D03*
Y50000D02*
D03*
X315000Y80000D02*
D03*
X202500Y71280D02*
D03*
Y33720D02*
D03*
X220000Y71280D02*
D03*
Y33720D02*
D03*
D16*
X64350Y229941D02*
D03*
Y244941D02*
D03*
Y259941D02*
D03*
Y59941D02*
D03*
Y44941D02*
D03*
Y29941D02*
D03*
D17*
Y274941D02*
D03*
Y74941D02*
D03*
D18*
X326772Y287402D02*
D03*
X19685D02*
D03*
X326772Y19685D02*
D03*
X19685D02*
D03*
D19*
X315000Y225000D02*
D03*
Y60000D02*
D03*
M02*
