G04*
G04 #@! TF.GenerationSoftware,Altium Limited,Altium Designer,22.10.1 (41)*
G04*
G04 Layer_Color=65535*
%FSLAX25Y25*%
%MOIN*%
G70*
G04*
G04 #@! TF.SameCoordinates,29EE3482-A75D-48CA-8BFF-185FBC0ED275*
G04*
G04*
G04 #@! TF.FilePolarity,Positive*
G04*
G01*
G75*
%ADD10C,0.00984*%
%ADD11C,0.00787*%
%ADD12C,0.01000*%
G36*
X137475Y20387D02*
X136306Y19842D01*
X133897Y18925D01*
X131428Y18186D01*
X128911Y17628D01*
X126360Y17254D01*
X123789Y17067D01*
X121211D01*
X118640Y17254D01*
X116089Y17628D01*
X113573Y18186D01*
X111103Y18925D01*
X108694Y19842D01*
X107525Y20387D01*
X107525Y20387D01*
X137475Y20387D01*
D02*
G37*
G36*
X172699Y112101D02*
X172131Y113319D01*
X171268Y115863D01*
X170686Y118486D01*
X170394Y121157D01*
Y123843D01*
X170686Y126514D01*
X171268Y129137D01*
X172131Y131682D01*
X172699Y132899D01*
Y132899D01*
Y112101D01*
D02*
G37*
G36*
X236080Y45840D02*
X235853Y46327D01*
X235507Y47345D01*
X235275Y48394D01*
X235157Y49463D01*
Y50537D01*
X235275Y51606D01*
X235507Y52655D01*
X235853Y53673D01*
X236080Y54160D01*
X236080D01*
X236080Y45840D01*
D02*
G37*
G36*
X256240Y117741D02*
X256526Y117128D01*
X256961Y115845D01*
X257254Y114523D01*
X257401Y113177D01*
Y111823D01*
X257254Y110477D01*
X256961Y109155D01*
X256526Y107872D01*
X256240Y107259D01*
Y107259D01*
Y117741D01*
D02*
G37*
G36*
X137475Y220387D02*
X136306Y219842D01*
X133897Y218925D01*
X131428Y218186D01*
X128911Y217628D01*
X126360Y217254D01*
X123789Y217067D01*
X121211D01*
X118640Y217254D01*
X116089Y217628D01*
X113573Y218186D01*
X111103Y218925D01*
X108694Y219842D01*
X107525Y220387D01*
X107525Y220387D01*
X137475Y220387D01*
D02*
G37*
G36*
X217301Y193135D02*
X217869Y191918D01*
X218732Y189374D01*
X219314Y186750D01*
X219606Y184080D01*
Y181393D01*
X219314Y178722D01*
X218732Y176099D01*
X217869Y173555D01*
X217301Y172337D01*
X217301D01*
X217301Y193135D01*
D02*
G37*
G36*
X233760Y187259D02*
X233474Y187873D01*
X233039Y189155D01*
X232746Y190477D01*
X232598Y191823D01*
Y193177D01*
X232746Y194523D01*
X233039Y195845D01*
X233474Y197127D01*
X233760Y197741D01*
X233760D01*
X233760Y187259D01*
D02*
G37*
G36*
X253920Y259160D02*
X254147Y258673D01*
X254493Y257655D01*
X254726Y256606D01*
X254842Y255537D01*
Y254463D01*
X254726Y253394D01*
X254493Y252345D01*
X254147Y251327D01*
X253920Y250840D01*
Y250840D01*
Y259160D01*
D02*
G37*
G36*
X184968Y175023D02*
X186339D01*
Y174447D01*
X184968D01*
Y173076D01*
X184385D01*
Y174447D01*
X183014D01*
Y175023D01*
X184385D01*
Y176408D01*
X184968D01*
Y175023D01*
D02*
G37*
G36*
X250694Y200199D02*
X252064D01*
Y199623D01*
X250694D01*
Y198238D01*
X250111D01*
Y199623D01*
X248740D01*
Y200199D01*
X250111D01*
Y201569D01*
X250694D01*
Y200199D01*
D02*
G37*
G36*
X240874Y247877D02*
X242244D01*
Y247301D01*
X240874D01*
Y245931D01*
X240290D01*
Y247301D01*
X238920D01*
Y247877D01*
X240290D01*
Y249262D01*
X240874D01*
Y247877D01*
D02*
G37*
G36*
X113605Y268036D02*
X114991D01*
Y267453D01*
X113605D01*
Y266083D01*
X113030D01*
Y267453D01*
X111659D01*
Y268036D01*
X113030D01*
Y269407D01*
X113605D01*
Y268036D01*
D02*
G37*
G36*
X205615Y130789D02*
X206986D01*
Y130213D01*
X205615D01*
Y128828D01*
X205032D01*
Y130213D01*
X203661D01*
Y130789D01*
X205032D01*
Y132160D01*
X205615D01*
Y130789D01*
D02*
G37*
G36*
X113605Y68036D02*
X114991D01*
Y67453D01*
X113605D01*
Y66083D01*
X113030D01*
Y67453D01*
X111659D01*
Y68036D01*
X113030D01*
Y69407D01*
X113605D01*
Y68036D01*
D02*
G37*
G36*
X239889Y105377D02*
X241260D01*
Y104801D01*
X239889D01*
Y103431D01*
X239306D01*
Y104801D01*
X237936D01*
Y105377D01*
X239306D01*
Y106762D01*
X239889D01*
Y105377D01*
D02*
G37*
G36*
X249710Y57699D02*
X251080D01*
Y57123D01*
X249710D01*
Y55738D01*
X249126D01*
Y57123D01*
X247756D01*
Y57699D01*
X249126D01*
Y59069D01*
X249710D01*
Y57699D01*
D02*
G37*
D10*
X97992Y159902D02*
X97254Y160328D01*
Y159475D01*
X97992Y159902D01*
X65728Y284390D02*
X64990Y284816D01*
Y283964D01*
X65728Y284390D01*
X245492Y275157D02*
X244754Y275584D01*
Y274731D01*
X245492Y275157D01*
X132992Y205571D02*
X132254Y205997D01*
Y205145D01*
X132992Y205571D01*
X65728Y84390D02*
X64990Y84816D01*
Y83964D01*
X65728Y84390D01*
X94902Y145335D02*
X94163Y145761D01*
Y144908D01*
X94902Y145335D01*
X134901Y99665D02*
X134163Y100092D01*
Y99239D01*
X134901Y99665D01*
X273406Y26831D02*
X272667Y27257D01*
Y26405D01*
X273406Y26831D01*
D11*
X217301Y172337D02*
X217714Y173273D01*
X218087Y174224D01*
X218421Y175191D01*
X218714Y176170D01*
X218966Y177161D01*
X219177Y178162D01*
X219346Y179170D01*
X219474Y180184D01*
X219558Y181203D01*
X219601Y182225D01*
Y183247D01*
X219558Y184269D01*
X219474Y185288D01*
X219346Y186302D01*
X219177Y187311D01*
X218966Y188311D01*
X218714Y189302D01*
X218421Y190282D01*
X218087Y191248D01*
X217714Y192200D01*
X217301Y193135D01*
X219606Y182736D02*
X219586Y183733D01*
X219525Y184729D01*
X219425Y185721D01*
X219284Y186709D01*
X219103Y187689D01*
X218882Y188662D01*
X218622Y189625D01*
X218324Y190577D01*
X217987Y191516D01*
X217612Y192440D01*
X217200Y193348D01*
X216752Y194239D01*
X216268Y195111D01*
X215749Y195963D01*
X215196Y196793D01*
X214610Y197600D01*
X213991Y198382D01*
X213341Y199139D01*
X212662Y199869D01*
X211953Y200571D01*
X211216Y201243D01*
X210453Y201885D01*
X209664Y202496D01*
X208851Y203074D01*
X208016Y203618D01*
X207159Y204129D01*
X206282Y204604D01*
X205386Y205043D01*
X204474Y205446D01*
X203546Y205811D01*
X202604Y206138D01*
X201649Y206427D01*
X200684Y206677D01*
X199709Y206888D01*
X198726Y207059D01*
X197737Y207190D01*
X196744Y207281D01*
X195748Y207331D01*
X194751Y207341D01*
X193754Y207311D01*
X192759Y207240D01*
X191768Y207129D01*
X190782Y206978D01*
X189803Y206787D01*
X188832Y206557D01*
X187872Y206288D01*
X186924Y205979D01*
X185988Y205633D01*
X185068Y205249D01*
X184164Y204828D01*
X183277Y204371D01*
X182410Y203878D01*
X181564Y203350D01*
X180739Y202789D01*
X179938Y202194D01*
X179162Y201568D01*
X178412Y200911D01*
X177689Y200223D01*
X176995Y199507D01*
X176330Y198764D01*
X175696Y197994D01*
X175093Y197199D01*
X174523Y196381D01*
X173987Y195540D01*
X173486Y194678D01*
X173019Y193796D01*
X172589Y192896D01*
X172196Y191980D01*
X171840Y191048D01*
X171522Y190102D01*
X171243Y189145D01*
X171003Y188177D01*
X170802Y187200D01*
X170641Y186216D01*
X170520Y185226D01*
X170439Y184231D01*
X170399Y183235D01*
Y182238D01*
X170439Y181241D01*
X170520Y180247D01*
X170641Y179257D01*
X170802Y178272D01*
X171003Y177295D01*
X171243Y176328D01*
X171522Y175370D01*
X171840Y174425D01*
X172196Y173493D01*
X172589Y172576D01*
X173019Y171676D01*
X173486Y170795D01*
X173987Y169933D01*
X174523Y169092D01*
X175093Y168273D01*
X175696Y167478D01*
X176330Y166708D01*
X176995Y165965D01*
X177689Y165249D01*
X178412Y164562D01*
X179162Y163905D01*
X179938Y163278D01*
X180739Y162684D01*
X181564Y162122D01*
X182410Y161595D01*
X183277Y161102D01*
X184164Y160645D01*
X185068Y160224D01*
X185988Y159840D01*
X186924Y159493D01*
X187872Y159185D01*
X188832Y158915D01*
X189803Y158685D01*
X190782Y158494D01*
X191768Y158343D01*
X192759Y158232D01*
X193754Y158162D01*
X194751Y158131D01*
X195748Y158141D01*
X196744Y158192D01*
X197737Y158283D01*
X198726Y158414D01*
X199709Y158585D01*
X200684Y158795D01*
X201649Y159045D01*
X202604Y159334D01*
X203546Y159662D01*
X204474Y160027D01*
X205386Y160430D01*
X206282Y160869D01*
X207159Y161344D01*
X208016Y161854D01*
X208851Y162399D01*
X209664Y162977D01*
X210453Y163587D01*
X211216Y164230D01*
X211953Y164902D01*
X212662Y165603D01*
X213341Y166333D01*
X213991Y167090D01*
X214610Y167873D01*
X215196Y168679D01*
X215749Y169509D01*
X216268Y170361D01*
X216752Y171233D01*
X217200Y172124D01*
X217612Y173033D01*
X217987Y173957D01*
X218324Y174896D01*
X218622Y175847D01*
X218882Y176810D01*
X219103Y177783D01*
X219284Y178764D01*
X219425Y179751D01*
X219525Y180744D01*
X219586Y181739D01*
X219606Y182736D01*
X233760Y197741D02*
X233380Y196834D01*
X233073Y195899D01*
X232842Y194943D01*
X232686Y193972D01*
X232608Y192992D01*
Y192008D01*
X232686Y191028D01*
X232842Y190057D01*
X233073Y189101D01*
X233380Y188166D01*
X233760Y187259D01*
X257401Y192500D02*
X257361Y193498D01*
X257241Y194489D01*
X257041Y195468D01*
X256763Y196427D01*
X256409Y197361D01*
X255981Y198263D01*
X255482Y199128D01*
X254914Y199950D01*
X254283Y200724D01*
X253591Y201444D01*
X252843Y202106D01*
X252045Y202706D01*
X251201Y203240D01*
X250316Y203704D01*
X249398Y204096D01*
X248450Y204412D01*
X247481Y204651D01*
X246495Y204811D01*
X245499Y204891D01*
X244501D01*
X243505Y204811D01*
X242519Y204651D01*
X241550Y204412D01*
X240602Y204096D01*
X239684Y203704D01*
X238799Y203240D01*
X237955Y202706D01*
X237157Y202106D01*
X236409Y201444D01*
X235717Y200724D01*
X235086Y199950D01*
X234518Y199128D01*
X234019Y198263D01*
X233591Y197361D01*
X233237Y196427D01*
X232959Y195468D01*
X232759Y194489D01*
X232639Y193498D01*
X232598Y192500D01*
X232639Y191502D01*
X232759Y190511D01*
X232959Y189532D01*
X233237Y188573D01*
X233591Y187639D01*
X234019Y186737D01*
X234518Y185872D01*
X235086Y185050D01*
X235717Y184276D01*
X236409Y183556D01*
X237157Y182894D01*
X237955Y182294D01*
X238799Y181760D01*
X239684Y181296D01*
X240602Y180904D01*
X241550Y180588D01*
X242519Y180349D01*
X243505Y180189D01*
X244501Y180108D01*
X245499D01*
X246495Y180189D01*
X247481Y180349D01*
X248450Y180588D01*
X249398Y180904D01*
X250317Y181296D01*
X251201Y181760D01*
X252045Y182294D01*
X252843Y182894D01*
X253591Y183556D01*
X254283Y184276D01*
X254914Y185050D01*
X255482Y185872D01*
X255981Y186737D01*
X256409Y187639D01*
X256763Y188573D01*
X257041Y189532D01*
X257241Y190511D01*
X257361Y191502D01*
X257401Y192500D01*
X253920Y250840D02*
X254281Y251724D01*
X254555Y252637D01*
X254739Y253573D01*
X254831Y254523D01*
X254831Y255477D01*
X254739Y256427D01*
X254555Y257363D01*
X254281Y258277D01*
X253920Y259160D01*
X254842Y255000D02*
X254792Y255996D01*
X254641Y256981D01*
X254391Y257946D01*
X254045Y258881D01*
X253606Y259777D01*
X253078Y260623D01*
X252468Y261411D01*
X251781Y262134D01*
X251025Y262783D01*
X250206Y263353D01*
X249335Y263837D01*
X248418Y264230D01*
X247467Y264528D01*
X246490Y264729D01*
X245498Y264830D01*
X244501D01*
X243510Y264729D01*
X242533Y264528D01*
X241582Y264230D01*
X240665Y263837D01*
X239794Y263353D01*
X238975Y262783D01*
X238219Y262134D01*
X237532Y261411D01*
X236922Y260623D01*
X236394Y259777D01*
X235955Y258881D01*
X235609Y257946D01*
X235359Y256981D01*
X235208Y255996D01*
X235157Y255000D01*
X235208Y254004D01*
X235359Y253019D01*
X235609Y252053D01*
X235955Y251118D01*
X236394Y250223D01*
X236922Y249377D01*
X237532Y248589D01*
X238219Y247866D01*
X238975Y247217D01*
X239794Y246647D01*
X240665Y246163D01*
X241582Y245770D01*
X242533Y245472D01*
X243510Y245271D01*
X244501Y245170D01*
X245498D01*
X246491Y245271D01*
X247467Y245472D01*
X248418Y245770D01*
X249335Y246163D01*
X250206Y246647D01*
X251025Y247217D01*
X251781Y247866D01*
X252468Y248589D01*
X253078Y249377D01*
X253606Y250223D01*
X254045Y251119D01*
X254391Y252053D01*
X254641Y253019D01*
X254792Y254004D01*
X254842Y255000D01*
X107525Y220387D02*
X108435Y219978D01*
X109356Y219595D01*
X110287Y219238D01*
X111229Y218908D01*
X112179Y218604D01*
X113137Y218326D01*
X114102Y218076D01*
X115075Y217854D01*
X116053Y217658D01*
X117036Y217491D01*
X118024Y217351D01*
X119015Y217239D01*
X120009Y217155D01*
X121004Y217099D01*
X122001Y217071D01*
X122999D01*
X123996Y217099D01*
X124992Y217155D01*
X125986Y217239D01*
X126977Y217351D01*
X127964Y217491D01*
X128947Y217658D01*
X129926Y217854D01*
X130898Y218076D01*
X131863Y218327D01*
X132822Y218604D01*
X133772Y218908D01*
X134713Y219238D01*
X135644Y219595D01*
X136565Y219978D01*
X137475Y220387D01*
X157933Y252500D02*
X157919Y253498D01*
X157877Y254496D01*
X157807Y255491D01*
X157708Y256485D01*
X157582Y257475D01*
X157428Y258462D01*
X157246Y259443D01*
X157037Y260419D01*
X156800Y261389D01*
X156536Y262352D01*
X156245Y263307D01*
X155927Y264253D01*
X155582Y265190D01*
X155212Y266117D01*
X154815Y267033D01*
X154393Y267938D01*
X153946Y268830D01*
X153473Y269710D01*
X152976Y270575D01*
X152454Y271427D01*
X151909Y272263D01*
X151341Y273084D01*
X150750Y273888D01*
X150136Y274676D01*
X149500Y275445D01*
X148843Y276197D01*
X148165Y276930D01*
X147467Y277643D01*
X146748Y278336D01*
X146011Y279009D01*
X145255Y279661D01*
X144480Y280291D01*
X143689Y280900D01*
X142880Y281485D01*
X142056Y282048D01*
X141216Y282587D01*
X140360Y283102D01*
X139491Y283593D01*
X138609Y284060D01*
X137713Y284501D01*
X136805Y284917D01*
X135887Y285307D01*
X134957Y285671D01*
X134018Y286009D01*
X133069Y286320D01*
X132112Y286604D01*
X131147Y286862D01*
X130176Y287092D01*
X129198Y287294D01*
X128215Y287469D01*
X127228Y287616D01*
X126237Y287735D01*
X125243Y287827D01*
X124246Y287890D01*
X123249Y287925D01*
X122250Y287932D01*
X121252Y287911D01*
X120255Y287862D01*
X119260Y287785D01*
X118267Y287679D01*
X117278Y287546D01*
X116293Y287385D01*
X115312Y287196D01*
X114338Y286980D01*
X113370Y286736D01*
X112409Y286466D01*
X111456Y286168D01*
X110512Y285843D01*
X109577Y285492D01*
X108653Y285115D01*
X107739Y284712D01*
X106838Y284283D01*
X105948Y283830D01*
X105072Y283351D01*
X104210Y282848D01*
X103363Y282320D01*
X102530Y281769D01*
X101713Y281195D01*
X100913Y280598D01*
X100130Y279979D01*
X99365Y279338D01*
X98618Y278675D01*
X97890Y277992D01*
X97182Y277289D01*
X96494Y276566D01*
X95826Y275823D01*
X95179Y275063D01*
X94555Y274284D01*
X93952Y273488D01*
X93372Y272676D01*
X92815Y271847D01*
X92282Y271003D01*
X91773Y270144D01*
X91288Y269272D01*
X90828Y268386D01*
X90393Y267487D01*
X89983Y266577D01*
X89600Y265655D01*
X89242Y264723D01*
X88911Y263781D01*
X88606Y262830D01*
X88329Y261872D01*
X88078Y260905D01*
X87855Y259932D01*
X87660Y258953D01*
X87492Y257969D01*
X87351Y256981D01*
X87239Y255989D01*
X87155Y254994D01*
X87099Y253997D01*
X87071Y252999D01*
Y252001D01*
X87099Y251003D01*
X87155Y250006D01*
X87239Y249011D01*
X87351Y248020D01*
X87492Y247031D01*
X87660Y246047D01*
X87855Y245068D01*
X88078Y244095D01*
X88329Y243128D01*
X88606Y242170D01*
X88911Y241219D01*
X89242Y240277D01*
X89600Y239345D01*
X89983Y238423D01*
X90393Y237513D01*
X90828Y236614D01*
X91288Y235728D01*
X91773Y234856D01*
X92282Y233997D01*
X92815Y233153D01*
X93372Y232324D01*
X93952Y231512D01*
X94555Y230716D01*
X95179Y229937D01*
X95826Y229176D01*
X96493Y228434D01*
X97182Y227711D01*
X97890Y227008D01*
X98618Y226325D01*
X99365Y225662D01*
X100130Y225021D01*
X100913Y224402D01*
X101713Y223805D01*
X102530Y223231D01*
X103363Y222680D01*
X104210Y222152D01*
X105072Y221649D01*
X105948Y221170D01*
X106838Y220717D01*
X107739Y220288D01*
X108653Y219885D01*
X109577Y219508D01*
X110512Y219157D01*
X111456Y218832D01*
X112408Y218534D01*
X113369Y218264D01*
X114338Y218020D01*
X115312Y217804D01*
X116293Y217615D01*
X117278Y217454D01*
X118267Y217321D01*
X119260Y217215D01*
X120255Y217138D01*
X121252Y217089D01*
X122250Y217068D01*
X123249Y217075D01*
X124246Y217110D01*
X125243Y217173D01*
X126237Y217265D01*
X127228Y217384D01*
X128215Y217531D01*
X129198Y217706D01*
X130176Y217908D01*
X131147Y218138D01*
X132112Y218396D01*
X133069Y218680D01*
X134018Y218991D01*
X134957Y219329D01*
X135887Y219693D01*
X136805Y220083D01*
X137713Y220499D01*
X138608Y220940D01*
X139491Y221407D01*
X140360Y221898D01*
X141215Y222413D01*
X142056Y222952D01*
X142880Y223515D01*
X143689Y224100D01*
X144480Y224709D01*
X145255Y225339D01*
X146011Y225991D01*
X146748Y226664D01*
X147467Y227357D01*
X148165Y228070D01*
X148843Y228803D01*
X149500Y229555D01*
X150136Y230324D01*
X150750Y231112D01*
X151341Y231916D01*
X151909Y232737D01*
X152454Y233573D01*
X152976Y234424D01*
X153473Y235290D01*
X153945Y236170D01*
X154393Y237062D01*
X154815Y237967D01*
X155212Y238883D01*
X155582Y239810D01*
X155927Y240747D01*
X156245Y241693D01*
X156536Y242648D01*
X156800Y243611D01*
X157037Y244581D01*
X157246Y245557D01*
X157428Y246538D01*
X157582Y247525D01*
X157708Y248515D01*
X157807Y249509D01*
X157877Y250504D01*
X157919Y251502D01*
X157933Y252500D01*
X172699Y132899D02*
X172286Y131964D01*
X171913Y131012D01*
X171579Y130045D01*
X171286Y129066D01*
X171034Y128075D01*
X170823Y127075D01*
X170654Y126066D01*
X170526Y125052D01*
X170442Y124033D01*
X170399Y123011D01*
Y121989D01*
X170442Y120967D01*
X170526Y119948D01*
X170654Y118934D01*
X170823Y117925D01*
X171034Y116925D01*
X171286Y115934D01*
X171579Y114955D01*
X171913Y113988D01*
X172286Y113036D01*
X172699Y112101D01*
X219606Y122500D02*
X219586Y123497D01*
X219525Y124493D01*
X219425Y125485D01*
X219284Y126472D01*
X219103Y127453D01*
X218882Y128426D01*
X218622Y129389D01*
X218324Y130341D01*
X217987Y131279D01*
X217612Y132204D01*
X217200Y133112D01*
X216752Y134003D01*
X216268Y134875D01*
X215749Y135727D01*
X215196Y136557D01*
X214610Y137364D01*
X213991Y138146D01*
X213341Y138903D01*
X212662Y139633D01*
X211953Y140334D01*
X211216Y141007D01*
X210453Y141649D01*
X209664Y142259D01*
X208851Y142837D01*
X208016Y143382D01*
X207159Y143892D01*
X206282Y144367D01*
X205386Y144807D01*
X204474Y145209D01*
X203546Y145575D01*
X202604Y145902D01*
X201649Y146191D01*
X200684Y146441D01*
X199709Y146651D01*
X198726Y146823D01*
X197737Y146953D01*
X196744Y147044D01*
X195748Y147095D01*
X194751Y147105D01*
X193754Y147075D01*
X192759Y147004D01*
X191768Y146893D01*
X190782Y146742D01*
X189803Y146551D01*
X188832Y146321D01*
X187872Y146051D01*
X186924Y145743D01*
X185988Y145397D01*
X185068Y145013D01*
X184164Y144592D01*
X183277Y144134D01*
X182410Y143641D01*
X181564Y143114D01*
X180739Y142552D01*
X179938Y141958D01*
X179162Y141332D01*
X178412Y140674D01*
X177689Y139987D01*
X176995Y139271D01*
X176330Y138528D01*
X175696Y137758D01*
X175093Y136963D01*
X174523Y136145D01*
X173987Y135303D01*
X173486Y134441D01*
X173019Y133560D01*
X172589Y132660D01*
X172196Y131743D01*
X171840Y130812D01*
X171522Y129866D01*
X171243Y128909D01*
X171003Y127941D01*
X170802Y126964D01*
X170641Y125979D01*
X170520Y124989D01*
X170439Y123995D01*
X170399Y122999D01*
Y122001D01*
X170439Y121005D01*
X170520Y120011D01*
X170641Y119021D01*
X170802Y118036D01*
X171003Y117059D01*
X171243Y116091D01*
X171522Y115134D01*
X171840Y114188D01*
X172196Y113257D01*
X172589Y112340D01*
X173019Y111440D01*
X173486Y110558D01*
X173987Y109696D01*
X174523Y108855D01*
X175093Y108037D01*
X175696Y107242D01*
X176330Y106472D01*
X176995Y105729D01*
X177689Y105013D01*
X178412Y104326D01*
X179162Y103668D01*
X179938Y103042D01*
X180739Y102447D01*
X181564Y101886D01*
X182410Y101358D01*
X183277Y100866D01*
X184164Y100408D01*
X185068Y99987D01*
X185988Y99603D01*
X186924Y99257D01*
X187872Y98949D01*
X188832Y98679D01*
X189803Y98449D01*
X190782Y98258D01*
X191768Y98107D01*
X192759Y97996D01*
X193754Y97925D01*
X194751Y97895D01*
X195748Y97905D01*
X196744Y97956D01*
X197737Y98046D01*
X198726Y98177D01*
X199709Y98348D01*
X200684Y98559D01*
X201649Y98809D01*
X202604Y99098D01*
X203546Y99426D01*
X204474Y99791D01*
X205386Y100193D01*
X206282Y100633D01*
X207159Y101108D01*
X208016Y101618D01*
X208851Y102163D01*
X209664Y102741D01*
X210453Y103351D01*
X211216Y103993D01*
X211953Y104666D01*
X212662Y105367D01*
X213341Y106097D01*
X213991Y106854D01*
X214610Y107636D01*
X215196Y108443D01*
X215749Y109273D01*
X216268Y110125D01*
X216752Y110997D01*
X217200Y111888D01*
X217612Y112796D01*
X217987Y113721D01*
X218324Y114659D01*
X218622Y115611D01*
X218882Y116574D01*
X219103Y117547D01*
X219284Y118528D01*
X219425Y119515D01*
X219525Y120507D01*
X219586Y121503D01*
X219606Y122500D01*
X157933Y52500D02*
X157919Y53498D01*
X157877Y54496D01*
X157807Y55492D01*
X157708Y56485D01*
X157582Y57475D01*
X157428Y58462D01*
X157246Y59443D01*
X157037Y60419D01*
X156800Y61389D01*
X156536Y62352D01*
X156245Y63307D01*
X155927Y64253D01*
X155582Y65190D01*
X155212Y66117D01*
X154815Y67033D01*
X154393Y67938D01*
X153946Y68830D01*
X153473Y69710D01*
X152976Y70575D01*
X152454Y71427D01*
X151909Y72263D01*
X151341Y73084D01*
X150750Y73888D01*
X150136Y74676D01*
X149500Y75445D01*
X148843Y76197D01*
X148165Y76930D01*
X147467Y77643D01*
X146748Y78336D01*
X146011Y79009D01*
X145255Y79661D01*
X144480Y80291D01*
X143689Y80900D01*
X142880Y81485D01*
X142056Y82048D01*
X141216Y82587D01*
X140360Y83102D01*
X139491Y83593D01*
X138609Y84060D01*
X137713Y84501D01*
X136805Y84917D01*
X135887Y85307D01*
X134957Y85671D01*
X134018Y86009D01*
X133069Y86320D01*
X132112Y86604D01*
X131147Y86862D01*
X130176Y87092D01*
X129198Y87294D01*
X128215Y87469D01*
X127228Y87616D01*
X126237Y87735D01*
X125243Y87827D01*
X124246Y87890D01*
X123249Y87925D01*
X122250Y87932D01*
X121252Y87911D01*
X120255Y87862D01*
X119260Y87785D01*
X118267Y87679D01*
X117278Y87546D01*
X116293Y87385D01*
X115312Y87196D01*
X114338Y86980D01*
X113370Y86736D01*
X112409Y86466D01*
X111456Y86168D01*
X110512Y85843D01*
X109577Y85492D01*
X108653Y85115D01*
X107739Y84712D01*
X106838Y84284D01*
X105948Y83830D01*
X105072Y83351D01*
X104210Y82848D01*
X103363Y82320D01*
X102530Y81769D01*
X101713Y81195D01*
X100913Y80598D01*
X100130Y79979D01*
X99365Y79338D01*
X98618Y78675D01*
X97890Y77992D01*
X97182Y77289D01*
X96494Y76566D01*
X95826Y75823D01*
X95179Y75063D01*
X94555Y74284D01*
X93952Y73488D01*
X93372Y72676D01*
X92815Y71847D01*
X92282Y71003D01*
X91773Y70144D01*
X91288Y69272D01*
X90828Y68386D01*
X90393Y67487D01*
X89983Y66577D01*
X89600Y65655D01*
X89242Y64723D01*
X88911Y63781D01*
X88606Y62830D01*
X88329Y61871D01*
X88078Y60905D01*
X87855Y59932D01*
X87660Y58953D01*
X87492Y57969D01*
X87351Y56981D01*
X87239Y55989D01*
X87155Y54994D01*
X87099Y53997D01*
X87071Y52999D01*
Y52001D01*
X87099Y51003D01*
X87155Y50006D01*
X87239Y49011D01*
X87351Y48019D01*
X87492Y47031D01*
X87660Y46047D01*
X87855Y45068D01*
X88078Y44095D01*
X88329Y43128D01*
X88606Y42170D01*
X88911Y41219D01*
X89242Y40277D01*
X89600Y39345D01*
X89983Y38423D01*
X90393Y37513D01*
X90828Y36614D01*
X91288Y35728D01*
X91773Y34856D01*
X92282Y33997D01*
X92815Y33153D01*
X93372Y32324D01*
X93952Y31512D01*
X94555Y30716D01*
X95179Y29937D01*
X95826Y29177D01*
X96493Y28434D01*
X97182Y27711D01*
X97890Y27008D01*
X98618Y26325D01*
X99365Y25662D01*
X100130Y25021D01*
X100913Y24402D01*
X101713Y23805D01*
X102530Y23231D01*
X103363Y22680D01*
X104210Y22152D01*
X105072Y21649D01*
X105948Y21170D01*
X106838Y20717D01*
X107739Y20288D01*
X108653Y19885D01*
X109577Y19508D01*
X110512Y19157D01*
X111456Y18832D01*
X112408Y18534D01*
X113369Y18264D01*
X114338Y18020D01*
X115312Y17804D01*
X116293Y17615D01*
X117278Y17454D01*
X118267Y17321D01*
X119260Y17215D01*
X120255Y17138D01*
X121252Y17089D01*
X122250Y17068D01*
X123249Y17075D01*
X124246Y17110D01*
X125243Y17173D01*
X126237Y17265D01*
X127228Y17384D01*
X128215Y17531D01*
X129198Y17706D01*
X130176Y17908D01*
X131147Y18138D01*
X132112Y18396D01*
X133069Y18680D01*
X134018Y18991D01*
X134957Y19329D01*
X135887Y19693D01*
X136805Y20083D01*
X137713Y20499D01*
X138608Y20940D01*
X139491Y21407D01*
X140360Y21898D01*
X141215Y22413D01*
X142056Y22952D01*
X142880Y23515D01*
X143689Y24101D01*
X144480Y24709D01*
X145255Y25339D01*
X146011Y25991D01*
X146748Y26664D01*
X147467Y27357D01*
X148165Y28070D01*
X148843Y28803D01*
X149500Y29555D01*
X150136Y30324D01*
X150750Y31112D01*
X151341Y31916D01*
X151909Y32737D01*
X152454Y33573D01*
X152976Y34424D01*
X153473Y35290D01*
X153945Y36170D01*
X154393Y37062D01*
X154815Y37967D01*
X155212Y38883D01*
X155582Y39810D01*
X155927Y40747D01*
X156245Y41693D01*
X156536Y42648D01*
X156800Y43611D01*
X157037Y44581D01*
X157246Y45557D01*
X157428Y46538D01*
X157582Y47525D01*
X157708Y48515D01*
X157807Y49509D01*
X157877Y50504D01*
X157919Y51502D01*
X157933Y52500D01*
X107525Y20387D02*
X108435Y19978D01*
X109356Y19595D01*
X110287Y19238D01*
X111229Y18908D01*
X112179Y18604D01*
X113137Y18327D01*
X114102Y18077D01*
X115075Y17854D01*
X116053Y17659D01*
X117036Y17491D01*
X118024Y17351D01*
X119015Y17239D01*
X120009Y17155D01*
X121004Y17099D01*
X122001Y17071D01*
X122999D01*
X123996Y17099D01*
X124992Y17155D01*
X125986Y17239D01*
X126977Y17351D01*
X127964Y17491D01*
X128947Y17659D01*
X129926Y17854D01*
X130898Y18077D01*
X131863Y18327D01*
X132822Y18604D01*
X133772Y18908D01*
X134713Y19238D01*
X135644Y19595D01*
X136565Y19978D01*
X137475Y20387D01*
X257401Y112500D02*
X257361Y113498D01*
X257241Y114489D01*
X257041Y115468D01*
X256763Y116427D01*
X256409Y117361D01*
X255981Y118263D01*
X255482Y119128D01*
X254914Y119950D01*
X254283Y120724D01*
X253591Y121444D01*
X252843Y122106D01*
X252045Y122706D01*
X251201Y123240D01*
X250316Y123704D01*
X249398Y124096D01*
X248450Y124412D01*
X247481Y124651D01*
X246495Y124811D01*
X245499Y124891D01*
X244501D01*
X243505Y124811D01*
X242519Y124651D01*
X241550Y124412D01*
X240602Y124096D01*
X239684Y123704D01*
X238799Y123240D01*
X237955Y122706D01*
X237157Y122106D01*
X236409Y121444D01*
X235717Y120724D01*
X235086Y119950D01*
X234518Y119128D01*
X234019Y118263D01*
X233591Y117361D01*
X233237Y116427D01*
X232959Y115468D01*
X232759Y114489D01*
X232639Y113498D01*
X232598Y112500D01*
X232639Y111502D01*
X232759Y110511D01*
X232959Y109532D01*
X233237Y108573D01*
X233591Y107639D01*
X234019Y106737D01*
X234518Y105872D01*
X235086Y105050D01*
X235717Y104276D01*
X236409Y103556D01*
X237157Y102894D01*
X237955Y102294D01*
X238799Y101760D01*
X239684Y101296D01*
X240602Y100904D01*
X241550Y100588D01*
X242519Y100349D01*
X243505Y100189D01*
X244501Y100109D01*
X245499D01*
X246495Y100189D01*
X247481Y100349D01*
X248450Y100588D01*
X249398Y100904D01*
X250317Y101296D01*
X251201Y101760D01*
X252045Y102294D01*
X252843Y102894D01*
X253591Y103556D01*
X254283Y104276D01*
X254914Y105050D01*
X255482Y105872D01*
X255981Y106737D01*
X256409Y107639D01*
X256763Y108573D01*
X257041Y109532D01*
X257241Y110511D01*
X257361Y111502D01*
X257401Y112500D01*
X256240Y107259D02*
X256620Y108166D01*
X256926Y109101D01*
X257158Y110056D01*
X257314Y111028D01*
X257392Y112008D01*
X257392Y112992D01*
X257314Y113972D01*
X257158Y114944D01*
X256926Y115899D01*
X256620Y116834D01*
X256240Y117741D01*
X254842Y50000D02*
X254792Y50996D01*
X254641Y51981D01*
X254391Y52947D01*
X254045Y53881D01*
X253606Y54777D01*
X253078Y55623D01*
X252468Y56411D01*
X251781Y57134D01*
X251025Y57783D01*
X250206Y58353D01*
X249335Y58837D01*
X248418Y59230D01*
X247467Y59528D01*
X246490Y59729D01*
X245498Y59830D01*
X244501D01*
X243510Y59729D01*
X242533Y59528D01*
X241582Y59230D01*
X240665Y58837D01*
X239794Y58353D01*
X238975Y57783D01*
X238219Y57134D01*
X237532Y56411D01*
X236922Y55623D01*
X236394Y54777D01*
X235955Y53881D01*
X235609Y52947D01*
X235359Y51981D01*
X235208Y50996D01*
X235157Y50000D01*
X235208Y49004D01*
X235359Y48019D01*
X235609Y47054D01*
X235955Y46119D01*
X236394Y45223D01*
X236922Y44377D01*
X237532Y43589D01*
X238219Y42866D01*
X238975Y42217D01*
X239794Y41647D01*
X240665Y41163D01*
X241582Y40770D01*
X242533Y40472D01*
X243510Y40271D01*
X244501Y40170D01*
X245498D01*
X246491Y40271D01*
X247467Y40472D01*
X248418Y40770D01*
X249335Y41163D01*
X250206Y41647D01*
X251025Y42217D01*
X251781Y42866D01*
X252468Y43589D01*
X253078Y44377D01*
X253606Y45223D01*
X254045Y46119D01*
X254391Y47054D01*
X254641Y48019D01*
X254792Y49004D01*
X254842Y50000D01*
X236080Y54160D02*
X235719Y53276D01*
X235445Y52363D01*
X235261Y51427D01*
X235169Y50477D01*
Y49523D01*
X235261Y48573D01*
X235445Y47637D01*
X235719Y46723D01*
X236080Y45840D01*
X88858Y162461D02*
Y203012D01*
X86890Y162461D02*
Y203012D01*
X106181Y162461D02*
Y203012D01*
X86890D02*
X106181D01*
X86890Y162461D02*
X106181D01*
X72500Y171600D02*
Y172500D01*
Y192500D02*
Y193400D01*
X69500Y172500D02*
X72500D01*
X69500D02*
Y192500D01*
X75500D01*
Y172500D02*
Y192500D01*
X72500Y172500D02*
X75500D01*
X46141Y222499D02*
Y264862D01*
X13858Y222499D02*
X46141D01*
X13858D02*
Y264862D01*
X46141D01*
X74685Y223464D02*
Y281535D01*
X60315Y223464D02*
X74685D01*
X60315Y280059D02*
Y281535D01*
Y265059D02*
Y269823D01*
Y250059D02*
Y254823D01*
Y235059D02*
Y239823D01*
Y223464D02*
Y224823D01*
Y281535D02*
X74685D01*
X276063Y277717D02*
Y296220D01*
X233937Y277717D02*
Y296220D01*
Y277717D02*
X276063D01*
X233937Y296220D02*
X276063D01*
X233937Y294252D02*
X276063D01*
X305000Y215000D02*
Y255000D01*
X315000D01*
Y260000D01*
X325000D01*
Y215000D02*
Y260000D01*
X305000Y215000D02*
X325000D01*
X277500Y210000D02*
Y225000D01*
X232500Y210000D02*
X277500D01*
X232500D02*
Y225000D01*
X277500D01*
X217301Y172337D02*
Y193135D01*
X215374Y248346D02*
X224626D01*
X220000Y238346D02*
Y243346D01*
Y261654D02*
Y266654D01*
X215374Y261654D02*
X224626D01*
Y243346D02*
Y261654D01*
X215374Y243346D02*
X224626D01*
X215374D02*
Y261654D01*
X233760Y187259D02*
Y197741D01*
X232500Y160000D02*
X277500D01*
Y175000D01*
X232500D02*
X277500D01*
X232500Y160000D02*
Y175000D01*
X253920Y250840D02*
Y259160D01*
X245000Y235000D02*
Y238000D01*
X265000D01*
Y232000D02*
Y238000D01*
X245000Y232000D02*
X265000D01*
X245000D02*
Y235000D01*
X244100D02*
X245000D01*
X265000D02*
X265900D01*
X298859Y157638D02*
Y200001D01*
X331142D01*
Y157638D02*
Y200001D01*
X298859Y157638D02*
X331142D01*
X107525Y220387D02*
X137475D01*
X197874Y243346D02*
Y261654D01*
Y243346D02*
X207126D01*
Y261654D01*
X197874D02*
X207126D01*
X202500D02*
Y266654D01*
Y238346D02*
Y243346D01*
X197874Y248346D02*
X207126D01*
X123819Y203012D02*
X143110D01*
X123819Y162461D02*
X143110D01*
X123819D02*
Y203012D01*
X143110Y162461D02*
Y203012D01*
X141142Y162461D02*
Y203012D01*
X157500Y171836D02*
Y172736D01*
Y192736D02*
Y193636D01*
X154500Y172736D02*
X157500D01*
X154500D02*
Y192736D01*
X160500D01*
Y172736D02*
Y192736D01*
X157500Y172736D02*
X160500D01*
X172500Y230000D02*
Y275000D01*
Y230000D02*
X187500D01*
Y275000D01*
X172500D02*
X187500D01*
X172500Y30000D02*
X187500D01*
X172500D02*
Y75000D01*
X107525Y20387D02*
X137475D01*
X232500Y80000D02*
X277500D01*
Y95000D01*
X232500D02*
X277500D01*
X232500Y80000D02*
Y95000D01*
X72500Y132500D02*
Y133400D01*
Y111600D02*
Y112500D01*
Y132500D02*
X75500D01*
Y112500D02*
Y132500D01*
X69500Y112500D02*
X75500D01*
X69500D02*
Y132500D01*
X72500D01*
X172699Y112101D02*
Y132899D01*
X305000Y50000D02*
X325000D01*
Y95000D01*
X315000D02*
X325000D01*
X315000Y90000D02*
Y95000D01*
X305000Y90000D02*
X315000D01*
X305000Y50000D02*
Y90000D01*
X46141Y39999D02*
Y82362D01*
X13858Y39999D02*
X46141D01*
X13858D02*
Y82362D01*
X46141D01*
X153909Y132500D02*
X156909D01*
X153909Y112500D02*
Y132500D01*
Y112500D02*
X159909D01*
Y132500D01*
X156909D02*
X159909D01*
X156909Y111600D02*
Y112500D01*
Y132500D02*
Y133400D01*
X125768Y102224D02*
Y142776D01*
X123799Y102224D02*
Y142776D01*
X143090Y102224D02*
Y142776D01*
X123799D02*
X143090D01*
X123799Y102224D02*
X143090D01*
X103051D02*
Y142776D01*
X105020Y102224D02*
Y142776D01*
X85728Y102224D02*
Y142776D01*
Y102224D02*
X105020D01*
X85728Y142776D02*
X105020D01*
X60315Y81535D02*
X74685D01*
X60315Y23464D02*
Y24823D01*
Y35059D02*
Y39823D01*
Y50059D02*
Y54823D01*
Y65059D02*
Y69823D01*
Y80059D02*
Y81535D01*
Y23464D02*
X74685D01*
Y81535D01*
X172500Y75000D02*
X187500D01*
Y30000D02*
Y75000D01*
X215374Y43346D02*
Y61654D01*
Y43346D02*
X224626D01*
Y61654D01*
X215374D02*
X224626D01*
X220000D02*
Y66654D01*
Y38346D02*
Y43346D01*
X215374Y48346D02*
X224626D01*
X245000Y67000D02*
Y70000D01*
Y67000D02*
X265000D01*
Y73000D01*
X245000D02*
X265000D01*
X245000Y70000D02*
Y73000D01*
X265000Y70000D02*
X265900D01*
X244100D02*
X245000D01*
X197874Y43346D02*
Y61654D01*
Y43346D02*
X207126D01*
Y61654D01*
X197874D02*
X207126D01*
X202500D02*
Y66654D01*
Y38346D02*
Y43346D01*
X197874Y48346D02*
X207126D01*
X298859Y102638D02*
X331142D01*
Y145001D01*
X298859D02*
X331142D01*
X298859Y102638D02*
Y145001D01*
X236080Y45840D02*
Y54160D01*
X277500Y130000D02*
Y145000D01*
X232500Y130000D02*
X277500D01*
X232500D02*
Y145000D01*
X277500D01*
X256240Y107259D02*
Y117741D01*
X234528Y13248D02*
X275472D01*
Y11280D02*
Y29390D01*
X234528D02*
X275472D01*
X234528Y11280D02*
Y29390D01*
Y11280D02*
X275472D01*
D12*
X28094Y186490D02*
X22096D01*
Y183491D01*
X23096Y182491D01*
X27095D01*
X28094Y183491D01*
Y186490D01*
X22096Y177493D02*
Y179492D01*
X23096Y180492D01*
X25095D01*
X26095Y179492D01*
Y177493D01*
X25095Y176493D01*
X24096D01*
Y180492D01*
X22096Y174494D02*
Y171495D01*
X23096Y170495D01*
X24096Y171495D01*
Y173494D01*
X25095Y174494D01*
X26095Y173494D01*
Y170495D01*
X22096Y168496D02*
Y166496D01*
Y167496D01*
X26095D01*
Y168496D01*
X20097Y161498D02*
Y160498D01*
X21097Y159499D01*
X26095D01*
Y162498D01*
X25095Y163497D01*
X23096D01*
X22096Y162498D01*
Y159499D01*
Y157499D02*
X26095D01*
Y154500D01*
X25095Y153500D01*
X22096D01*
Y148502D02*
Y150501D01*
X23096Y151501D01*
X25095D01*
X26095Y150501D01*
Y148502D01*
X25095Y147502D01*
X24096D01*
Y151501D01*
X28094Y141504D02*
X22096D01*
Y144503D01*
X23096Y145503D01*
X25095D01*
X26095Y144503D01*
Y141504D01*
X28094Y133507D02*
X22096D01*
Y130508D01*
X23096Y129508D01*
X24096D01*
X25095D01*
X26095Y130508D01*
Y133507D01*
Y127509D02*
X23096D01*
X22096Y126509D01*
Y123510D01*
X21097D01*
X20097Y124510D01*
Y125510D01*
X22096Y123510D02*
X26095D01*
X10499Y196986D02*
X16497D01*
X14498Y194987D01*
X16497Y192988D01*
X10499D01*
X14498Y189989D02*
Y187989D01*
X13498Y186990D01*
X10499D01*
Y189989D01*
X11499Y190988D01*
X12499Y189989D01*
Y186990D01*
X14498Y180992D02*
Y183991D01*
X13498Y184990D01*
X11499D01*
X10499Y183991D01*
Y180992D01*
Y178992D02*
Y176993D01*
Y177993D01*
X14498D01*
Y178992D01*
X10499Y170995D02*
Y172994D01*
X11499Y173994D01*
X13498D01*
X14498Y172994D01*
Y170995D01*
X13498Y169995D01*
X12499D01*
Y173994D01*
X8500Y167996D02*
Y166996D01*
X9500Y165996D01*
X14498D01*
X15498Y152001D02*
X16497Y153001D01*
Y155000D01*
X15498Y156000D01*
X11499D01*
X10499Y155000D01*
Y153001D01*
X11499Y152001D01*
X16497Y150002D02*
X10499D01*
X13498D01*
X14498Y149002D01*
Y147003D01*
X13498Y146003D01*
X10499D01*
Y143004D02*
Y141005D01*
X11499Y140005D01*
X13498D01*
X14498Y141005D01*
Y143004D01*
X13498Y144003D01*
X11499D01*
X10499Y143004D01*
Y138005D02*
Y136006D01*
Y137006D01*
X14498D01*
Y138005D01*
X10499Y133007D02*
X14498D01*
Y130008D01*
X13498Y129008D01*
X10499D01*
Y127009D02*
Y124010D01*
X11499Y123010D01*
X12499Y124010D01*
Y126009D01*
X13498Y127009D01*
X14498Y126009D01*
Y123010D01*
X10499Y121011D02*
X16497D01*
X12499D02*
X14498Y118012D01*
X12499Y121011D02*
X10499Y118012D01*
Y115013D02*
Y113014D01*
Y114013D01*
X14498D01*
Y115013D01*
X121500Y94499D02*
X120501Y95499D01*
X118501D01*
X117502Y94499D01*
Y90501D01*
X118501Y89501D01*
X120501D01*
X121500Y90501D01*
X123500Y94499D02*
X124499Y95499D01*
X126499D01*
X127498Y94499D01*
Y93500D01*
X126499Y92500D01*
X127498Y91500D01*
Y90501D01*
X126499Y89501D01*
X124499D01*
X123500Y90501D01*
Y91500D01*
X124499Y92500D01*
X123500Y93500D01*
Y94499D01*
X124499Y92500D02*
X126499D01*
X131500Y208001D02*
Y211999D01*
X130501Y212999D01*
X128501D01*
X127502Y211999D01*
Y208001D01*
X128501Y207001D01*
X130501D01*
X129501Y209000D02*
X131500Y207001D01*
X130501D02*
X131500Y208001D01*
X137498Y207001D02*
X133500D01*
X137498Y211000D01*
Y211999D01*
X136499Y212999D01*
X134499D01*
X133500Y211999D01*
X42999Y204000D02*
X46998D01*
Y201001D01*
X45998Y200001D01*
X42999D01*
X46998Y197002D02*
Y195003D01*
X45998Y194003D01*
X42999D01*
Y197002D01*
X43999Y198002D01*
X44999Y197002D01*
Y194003D01*
X41000Y186006D02*
X46998D01*
Y183007D01*
X45998Y182007D01*
X43999D01*
X42999Y183007D01*
Y186006D01*
Y177009D02*
Y179008D01*
X43999Y180008D01*
X45998D01*
X46998Y179008D01*
Y177009D01*
X45998Y176009D01*
X44999D01*
Y180008D01*
X46998Y174010D02*
X43999D01*
X42999Y173010D01*
X43999Y172010D01*
X42999Y171011D01*
X43999Y170011D01*
X46998D01*
X42999Y168012D02*
X46998D01*
Y165013D01*
X45998Y164013D01*
X42999D01*
Y161014D02*
Y159015D01*
X43999Y158015D01*
X45998D01*
X46998Y159015D01*
Y161014D01*
X45998Y162014D01*
X43999D01*
X42999Y161014D01*
X46998Y150017D02*
Y146019D01*
X42999Y150017D01*
Y146019D01*
X46998Y143020D02*
Y141020D01*
X45998Y140021D01*
X42999D01*
Y143020D01*
X43999Y144019D01*
X44999Y143020D01*
Y140021D01*
X48997Y134023D02*
X42999D01*
Y137022D01*
X43999Y138021D01*
X45998D01*
X46998Y137022D01*
Y134023D01*
Y132023D02*
Y128025D01*
X42999Y132023D01*
Y128025D01*
Y126025D02*
Y124026D01*
Y125025D01*
X46998D01*
Y126025D01*
Y120027D02*
Y118028D01*
X45998Y117028D01*
X42999D01*
Y120027D01*
X43999Y121027D01*
X44999Y120027D01*
Y117028D01*
X42999Y115029D02*
Y113029D01*
Y114029D01*
X48997D01*
Y115029D01*
X46998Y109031D02*
Y107031D01*
X45998Y106032D01*
X42999D01*
Y109031D01*
X43999Y110030D01*
X44999Y109031D01*
Y106032D01*
X53500Y196500D02*
X59498D01*
X57499Y194501D01*
X59498Y192501D01*
X53500D01*
Y190502D02*
X59498D01*
X55499D02*
X57499Y187503D01*
X55499Y190502D02*
X53500Y187503D01*
X59498Y184504D02*
X53500D01*
Y181505D01*
X54500Y180505D01*
X55499D01*
X56499D01*
X57499Y181505D01*
Y184504D01*
X53500Y175507D02*
Y177506D01*
X54500Y178506D01*
X56499D01*
X57499Y177506D01*
Y175507D01*
X56499Y174507D01*
X55499D01*
Y178506D01*
X57499Y172508D02*
X54500D01*
X53500Y171508D01*
X54500Y170508D01*
X53500Y169509D01*
X54500Y168509D01*
X57499D01*
X53500Y163511D02*
Y165510D01*
X54500Y166510D01*
X56499D01*
X57499Y165510D01*
Y163511D01*
X56499Y162511D01*
X55499D01*
Y166510D01*
X57499Y154514D02*
X53500Y152514D01*
X57499Y150515D01*
X53500Y145517D02*
Y147516D01*
X54500Y148515D01*
X56499D01*
X57499Y147516D01*
Y145517D01*
X56499Y144517D01*
X55499D01*
Y148515D01*
X57499Y142517D02*
X53500D01*
X55499D01*
X56499Y141518D01*
X57499Y140518D01*
Y139518D01*
X53500Y136519D02*
X54500D01*
Y135520D01*
X53500D01*
Y136519D01*
Y125523D02*
Y123524D01*
Y124523D01*
X59498D01*
X58498Y125523D01*
X53500Y120525D02*
X54500D01*
Y119525D01*
X53500D01*
Y120525D01*
Y111528D02*
Y115526D01*
X57499Y111528D01*
X58498D01*
X59498Y112527D01*
Y114526D01*
X58498Y115526D01*
X94000Y148001D02*
Y151999D01*
X93001Y152999D01*
X91001D01*
X90002Y151999D01*
Y148001D01*
X91001Y147001D01*
X93001D01*
X92001Y149000D02*
X94000Y147001D01*
X93001D02*
X94000Y148001D01*
X96000Y151999D02*
X96999Y152999D01*
X98999D01*
X99998Y151999D01*
Y151000D01*
X98999Y150000D01*
X97999D01*
X98999D01*
X99998Y149000D01*
Y148001D01*
X98999Y147001D01*
X96999D01*
X96000Y148001D01*
X97500Y205501D02*
Y209499D01*
X96500Y210499D01*
X94501D01*
X93501Y209499D01*
Y205501D01*
X94501Y204501D01*
X96500D01*
X95501Y206500D02*
X97500Y204501D01*
X96500D02*
X97500Y205501D01*
X99499Y204501D02*
X101499D01*
X100499D01*
Y210499D01*
X99499Y209499D01*
X284499Y90999D02*
X285499Y91998D01*
Y93998D01*
X284499Y94998D01*
X280501D01*
X279501Y93998D01*
Y91998D01*
X280501Y90999D01*
X279501Y88999D02*
Y87000D01*
Y88000D01*
X285499D01*
X284499Y88999D01*
X279501Y80002D02*
Y84001D01*
X283500Y80002D01*
X284499D01*
X285499Y81002D01*
Y83001D01*
X284499Y84001D01*
X284499Y218500D02*
X285499Y219499D01*
Y221499D01*
X284499Y222498D01*
X280501D01*
X279501Y221499D01*
Y219499D01*
X280501Y218500D01*
X285499Y212502D02*
Y216500D01*
X282500D01*
X283500Y214501D01*
Y213501D01*
X282500Y212502D01*
X280501D01*
X279501Y213501D01*
Y215501D01*
X280501Y216500D01*
X10499Y67498D02*
Y65498D01*
Y66498D01*
X4501D01*
Y67498D01*
Y65498D01*
Y62499D02*
X10499D01*
X4501Y58500D01*
X10499D01*
X7500Y56501D02*
Y52502D01*
X282999Y27997D02*
X277001D01*
Y23999D01*
Y21999D02*
X282999D01*
X281000Y20000D01*
X282999Y18001D01*
X277001D01*
X280000Y16001D02*
Y12003D01*
X282999Y295497D02*
X277001D01*
Y291499D01*
Y289499D02*
X282999D01*
X281000Y287500D01*
X282999Y285501D01*
X277001D01*
X280000Y283501D02*
Y279503D01*
X281999Y281502D02*
X278001D01*
X304004Y42001D02*
Y47999D01*
X307003D01*
X308002Y46999D01*
Y45000D01*
X307003Y44000D01*
X304004D01*
X313001Y47999D02*
X311001D01*
X310002Y46999D01*
Y43001D01*
X311001Y42001D01*
X313001D01*
X314000Y43001D01*
Y46999D01*
X313001Y47999D01*
X316000D02*
X319998D01*
X317999D01*
Y42001D01*
X321998Y45000D02*
X325996D01*
X304004Y207001D02*
Y212999D01*
X307003D01*
X308002Y211999D01*
Y210000D01*
X307003Y209000D01*
X304004D01*
X313001Y212999D02*
X311001D01*
X310002Y211999D01*
Y208001D01*
X311001Y207001D01*
X313001D01*
X314000Y208001D01*
Y211999D01*
X313001Y212999D01*
X316000D02*
X319998D01*
X317999D01*
Y207001D01*
X321998Y210000D02*
X325996D01*
X323997Y211999D02*
Y208001D01*
X152502Y142001D02*
Y147999D01*
X155501D01*
X156500Y146999D01*
Y145000D01*
X155501Y144000D01*
X152502D01*
X154501D02*
X156500Y142001D01*
X162498Y147999D02*
X158500D01*
Y145000D01*
X160499Y146000D01*
X161499D01*
X162498Y145000D01*
Y143001D01*
X161499Y142001D01*
X159499D01*
X158500Y143001D01*
X277001Y74998D02*
X282999D01*
Y71999D01*
X281999Y71000D01*
X280000D01*
X279000Y71999D01*
Y74998D01*
Y72999D02*
X277001Y71000D01*
X282999Y65002D02*
X281999Y67001D01*
X280000Y69000D01*
X278001D01*
X277001Y68001D01*
Y66001D01*
X278001Y65002D01*
X279000D01*
X280000Y66001D01*
Y69000D01*
X67502Y142001D02*
Y147999D01*
X70501D01*
X71500Y146999D01*
Y145000D01*
X70501Y144000D01*
X67502D01*
X69501D02*
X71500Y142001D01*
X76499D02*
Y147999D01*
X73500Y145000D01*
X77498D01*
X274501Y239998D02*
X280499D01*
Y236999D01*
X279499Y236000D01*
X277500D01*
X276500Y236999D01*
Y239998D01*
Y237999D02*
X274501Y236000D01*
X279499Y234000D02*
X280499Y233001D01*
Y231001D01*
X279499Y230002D01*
X278500D01*
X277500Y231001D01*
Y232001D01*
Y231001D01*
X276500Y230002D01*
X275501D01*
X274501Y231001D01*
Y233001D01*
X275501Y234000D01*
X68501Y202001D02*
Y207999D01*
X71500D01*
X72500Y206999D01*
Y205000D01*
X71500Y204000D01*
X68501D01*
X70501D02*
X72500Y202001D01*
X74499D02*
X76499D01*
X75499D01*
Y207999D01*
X74499Y206999D01*
X152502Y202001D02*
Y207999D01*
X155501D01*
X156500Y206999D01*
Y205000D01*
X155501Y204000D01*
X152502D01*
X154501D02*
X156500Y202001D01*
X162498D02*
X158500D01*
X162498Y206000D01*
Y206999D01*
X161499Y207999D01*
X159499D01*
X158500Y206999D01*
X131500Y145501D02*
Y149499D01*
X130501Y150499D01*
X128501D01*
X127502Y149499D01*
Y145501D01*
X128501Y144501D01*
X130501D01*
X129501Y146500D02*
X131500Y144501D01*
X130501D02*
X131500Y145501D01*
X136499Y144501D02*
Y150499D01*
X133500Y147500D01*
X137498D01*
X334501Y117003D02*
Y115003D01*
X335501Y114004D01*
X339499D01*
X340499Y115003D01*
Y117003D01*
X339499Y118002D01*
X335501D01*
X334501Y117003D01*
Y120002D02*
X339499D01*
X340499Y121001D01*
Y123001D01*
X339499Y124000D01*
X334501D01*
Y126000D02*
Y129998D01*
Y127999D01*
X340499D01*
X337500Y131998D02*
Y135996D01*
X334501Y172003D02*
Y170003D01*
X335501Y169004D01*
X339499D01*
X340499Y170003D01*
Y172003D01*
X339499Y173002D01*
X335501D01*
X334501Y172003D01*
Y175002D02*
X339499D01*
X340499Y176001D01*
Y178001D01*
X339499Y179000D01*
X334501D01*
Y181000D02*
Y184998D01*
Y182999D01*
X340499D01*
X337500Y186998D02*
Y190997D01*
X335501Y188997D02*
X339499D01*
X10499Y249761D02*
Y247762D01*
Y248762D01*
X4501D01*
Y249761D01*
Y247762D01*
Y244763D02*
X10499D01*
X4501Y240764D01*
X10499D01*
X7500Y238765D02*
Y234766D01*
X9499Y236766D02*
X5501D01*
X197502Y82999D02*
Y77001D01*
X200501D01*
X201500Y78001D01*
Y81999D01*
X200501Y82999D01*
X197502D01*
X206499Y77001D02*
Y82999D01*
X203500Y80000D01*
X207498D01*
X215002Y82999D02*
Y77001D01*
X218001D01*
X219000Y78001D01*
Y81999D01*
X218001Y82999D01*
X215002D01*
X221000Y81999D02*
X221999Y82999D01*
X223999D01*
X224998Y81999D01*
Y81000D01*
X223999Y80000D01*
X222999D01*
X223999D01*
X224998Y79000D01*
Y78001D01*
X223999Y77001D01*
X221999D01*
X221000Y78001D01*
X215950Y283748D02*
Y277750D01*
X218949D01*
X219949Y278750D01*
Y282748D01*
X218949Y283748D01*
X215950D01*
X225947Y277750D02*
X221948D01*
X225947Y281749D01*
Y282748D01*
X224947Y283748D01*
X222948D01*
X221948Y282748D01*
X199450Y283748D02*
Y277750D01*
X202449D01*
X203448Y278750D01*
Y282748D01*
X202449Y283748D01*
X199450D01*
X205448Y277750D02*
X207447D01*
X206447D01*
Y283748D01*
X205448Y282748D01*
X62502Y92999D02*
Y87001D01*
X65501D01*
X66500Y88001D01*
Y89000D01*
X65501Y90000D01*
X62502D01*
X65501D01*
X66500Y91000D01*
Y91999D01*
X65501Y92999D01*
X62502D01*
X68500Y90000D02*
X72498D01*
X62502Y287001D02*
Y292999D01*
X65501D01*
X66500Y291999D01*
Y291000D01*
X65501Y290000D01*
X62502D01*
X65501D01*
X66500Y289000D01*
Y288001D01*
X65501Y287001D01*
X62502D01*
X68500Y290000D02*
X72498D01*
X70499Y288001D02*
Y291999D01*
X285848Y140351D02*
X286848Y141351D01*
Y143350D01*
X285848Y144350D01*
X281850D01*
X280850Y143350D01*
Y141351D01*
X281850Y140351D01*
X280850Y138352D02*
Y136353D01*
Y137352D01*
X286848D01*
X285848Y138352D01*
X280850Y130354D02*
X286848D01*
X283849Y133354D01*
Y129355D01*
X176501Y81999D02*
X175502Y82999D01*
X173502D01*
X172502Y81999D01*
Y78001D01*
X173502Y77001D01*
X175502D01*
X176501Y78001D01*
X178500Y77001D02*
X180500D01*
X179500D01*
Y82999D01*
X178500Y81999D01*
X183499D02*
X184499Y82999D01*
X186498D01*
X187498Y81999D01*
Y78001D01*
X186498Y77001D01*
X184499D01*
X183499Y78001D01*
Y81999D01*
X194000Y154499D02*
X193001Y155499D01*
X191001D01*
X190002Y154499D01*
Y150501D01*
X191001Y149501D01*
X193001D01*
X194000Y150501D01*
X196000D02*
X196999Y149501D01*
X198999D01*
X199998Y150501D01*
Y154499D01*
X198999Y155499D01*
X196999D01*
X196000Y154499D01*
Y153500D01*
X196999Y152500D01*
X199998D01*
X264499Y115999D02*
X265499Y116999D01*
Y118998D01*
X264499Y119998D01*
X260501D01*
X259501Y118998D01*
Y116999D01*
X260501Y115999D01*
X259501Y113999D02*
Y112000D01*
Y113000D01*
X265499D01*
X264499Y113999D01*
Y109001D02*
X265499Y108001D01*
Y106002D01*
X264499Y105002D01*
X263500D01*
X262500Y106002D01*
Y107002D01*
Y106002D01*
X261500Y105002D01*
X260501D01*
X259501Y106002D01*
Y108001D01*
X260501Y109001D01*
X261999Y52499D02*
X262999Y53499D01*
Y55498D01*
X261999Y56498D01*
X258001D01*
X257001Y55498D01*
Y53499D01*
X258001Y52499D01*
X257001Y50500D02*
Y48500D01*
Y49500D01*
X262999D01*
X261999Y50500D01*
X257001Y45501D02*
Y43502D01*
Y44502D01*
X262999D01*
X261999Y45501D01*
X284499Y168500D02*
X285499Y169499D01*
Y171499D01*
X284499Y172498D01*
X280501D01*
X279501Y171499D01*
Y169499D01*
X280501Y168500D01*
X285499Y166500D02*
Y162502D01*
X284499D01*
X280501Y166500D01*
X279501D01*
X179000Y281999D02*
X178001Y282999D01*
X176001D01*
X175002Y281999D01*
Y278001D01*
X176001Y277001D01*
X178001D01*
X179000Y278001D01*
X181000Y281999D02*
X181999Y282999D01*
X183999D01*
X184998Y281999D01*
Y281000D01*
X183999Y280000D01*
X182999D01*
X183999D01*
X184998Y279000D01*
Y278001D01*
X183999Y277001D01*
X181999D01*
X181000Y278001D01*
X261999Y256000D02*
X262999Y256999D01*
Y258999D01*
X261999Y259998D01*
X258001D01*
X257001Y258999D01*
Y256999D01*
X258001Y256000D01*
X257001Y251001D02*
X262999D01*
X260000Y254000D01*
Y250002D01*
X194000Y214499D02*
X193001Y215499D01*
X191001D01*
X190002Y214499D01*
Y210501D01*
X191001Y209501D01*
X193001D01*
X194000Y210501D01*
X199998Y209501D02*
X196000D01*
X199998Y213500D01*
Y214499D01*
X198999Y215499D01*
X196999D01*
X196000Y214499D01*
X264499Y193500D02*
X265499Y194499D01*
Y196499D01*
X264499Y197498D01*
X260501D01*
X259501Y196499D01*
Y194499D01*
X260501Y193500D01*
X265499Y187502D02*
X264499Y189501D01*
X262500Y191500D01*
X260501D01*
X259501Y190501D01*
Y188501D01*
X260501Y187502D01*
X261500D01*
X262500Y188501D01*
Y191500D01*
X122500Y294499D02*
X121500Y295499D01*
X119501Y295499D01*
X118501Y294499D01*
X118501Y290501D01*
X119501Y289501D01*
X121500Y289501D01*
X122500Y290501D01*
X124499Y289501D02*
X126499Y289501D01*
X125499Y289501D01*
X125499Y295499D01*
X124499Y294499D01*
M02*
