M48
;Layer_Color=9474304
;FILE_FORMAT=2:4
INCH,TZ
;TYPE=PLATED
T1F00S00C0.0276
T2F00S00C0.0315
T3F00S00C0.0335
T4F00S00C0.0394
T5F00S00C0.0413
T6F00S00C0.0433
T7F00S00C0.0472
T8F00S00C0.1181
%
T01
X24106Y5000
X24894
X24000Y8750
X24008Y11250
X24992
X24000Y13750
X27000
Y8750
X31500Y8000
Y7000
Y6000
X18000Y6750
Y3750
Y23750
Y26750
X24106Y25500
X24894
X24000Y21750
X24008Y19250
X24992
X24000Y16750
X27000
Y21750
X31500Y22500
Y23500
Y24500
T02
X20484Y12250
X18516
X18516Y18274
X20484Y18274
T03
X24000Y7000
X27000
X15691Y10750
Y13750
X7250
Y10750
Y16750
Y19750
X15750Y19774
Y16774
X24000Y23500
X27000
T04
X12250Y3774
Y6726
Y23774
Y26726
X24500Y28500
X25500
X26500
T05
X20250Y3372
X22000
Y7128
X20250
Y23372
X22000
Y27128
X20250
T06
X24500Y2250
X25500
X26500
X31500Y11500
Y13500
X13441Y13250
Y12250
Y11250
X9441
Y12250
Y13250
X3000Y7000
Y5000
Y23250
Y25250
X9750Y19274
Y18274
Y17274
X13250
Y18274
Y19274
X31500Y19000
Y17000
T07
X6435Y2994
Y4494
Y5994
Y7494
Y22994
Y24494
Y25994
Y27494
T08
X32677Y1969
X1969
Y28740
X32677
M30
